G04 #@! TF.GenerationSoftware,KiCad,Pcbnew,(5.1.5-0-10_14)*
G04 #@! TF.CreationDate,2020-04-20T15:33:36-04:00*
G04 #@! TF.ProjectId,business card,62757369-6e65-4737-9320-636172642e6b,rev?*
G04 #@! TF.SameCoordinates,Original*
G04 #@! TF.FileFunction,Copper,L1,Top*
G04 #@! TF.FilePolarity,Positive*
%FSLAX46Y46*%
G04 Gerber Fmt 4.6, Leading zero omitted, Abs format (unit mm)*
G04 Created by KiCad (PCBNEW (5.1.5-0-10_14)) date 2020-04-20 15:33:36*
%MOMM*%
%LPD*%
G04 APERTURE LIST*
%ADD10R,1.450000X0.450000*%
%ADD11C,0.100000*%
%ADD12C,0.600000*%
%ADD13C,0.250000*%
%ADD14C,0.025400*%
G04 APERTURE END LIST*
D10*
X86712000Y-84369000D03*
X86712000Y-85019000D03*
X86712000Y-85669000D03*
X86712000Y-86319000D03*
X92612000Y-86319000D03*
X92612000Y-85669000D03*
X92612000Y-85019000D03*
X92612000Y-84369000D03*
G04 #@! TA.AperFunction,SMDPad,CuDef*
D11*
G36*
X91036505Y-80327204D02*
G01*
X91060773Y-80330804D01*
X91084572Y-80336765D01*
X91107671Y-80345030D01*
X91129850Y-80355520D01*
X91150893Y-80368132D01*
X91170599Y-80382747D01*
X91188777Y-80399223D01*
X91205253Y-80417401D01*
X91219868Y-80437107D01*
X91232480Y-80458150D01*
X91242970Y-80480329D01*
X91251235Y-80503428D01*
X91257196Y-80527227D01*
X91260796Y-80551495D01*
X91262000Y-80575999D01*
X91262000Y-81476001D01*
X91260796Y-81500505D01*
X91257196Y-81524773D01*
X91251235Y-81548572D01*
X91242970Y-81571671D01*
X91232480Y-81593850D01*
X91219868Y-81614893D01*
X91205253Y-81634599D01*
X91188777Y-81652777D01*
X91170599Y-81669253D01*
X91150893Y-81683868D01*
X91129850Y-81696480D01*
X91107671Y-81706970D01*
X91084572Y-81715235D01*
X91060773Y-81721196D01*
X91036505Y-81724796D01*
X91012001Y-81726000D01*
X90361999Y-81726000D01*
X90337495Y-81724796D01*
X90313227Y-81721196D01*
X90289428Y-81715235D01*
X90266329Y-81706970D01*
X90244150Y-81696480D01*
X90223107Y-81683868D01*
X90203401Y-81669253D01*
X90185223Y-81652777D01*
X90168747Y-81634599D01*
X90154132Y-81614893D01*
X90141520Y-81593850D01*
X90131030Y-81571671D01*
X90122765Y-81548572D01*
X90116804Y-81524773D01*
X90113204Y-81500505D01*
X90112000Y-81476001D01*
X90112000Y-80575999D01*
X90113204Y-80551495D01*
X90116804Y-80527227D01*
X90122765Y-80503428D01*
X90131030Y-80480329D01*
X90141520Y-80458150D01*
X90154132Y-80437107D01*
X90168747Y-80417401D01*
X90185223Y-80399223D01*
X90203401Y-80382747D01*
X90223107Y-80368132D01*
X90244150Y-80355520D01*
X90266329Y-80345030D01*
X90289428Y-80336765D01*
X90313227Y-80330804D01*
X90337495Y-80327204D01*
X90361999Y-80326000D01*
X91012001Y-80326000D01*
X91036505Y-80327204D01*
G37*
G04 #@! TD.AperFunction*
G04 #@! TA.AperFunction,SMDPad,CuDef*
G36*
X88986505Y-80327204D02*
G01*
X89010773Y-80330804D01*
X89034572Y-80336765D01*
X89057671Y-80345030D01*
X89079850Y-80355520D01*
X89100893Y-80368132D01*
X89120599Y-80382747D01*
X89138777Y-80399223D01*
X89155253Y-80417401D01*
X89169868Y-80437107D01*
X89182480Y-80458150D01*
X89192970Y-80480329D01*
X89201235Y-80503428D01*
X89207196Y-80527227D01*
X89210796Y-80551495D01*
X89212000Y-80575999D01*
X89212000Y-81476001D01*
X89210796Y-81500505D01*
X89207196Y-81524773D01*
X89201235Y-81548572D01*
X89192970Y-81571671D01*
X89182480Y-81593850D01*
X89169868Y-81614893D01*
X89155253Y-81634599D01*
X89138777Y-81652777D01*
X89120599Y-81669253D01*
X89100893Y-81683868D01*
X89079850Y-81696480D01*
X89057671Y-81706970D01*
X89034572Y-81715235D01*
X89010773Y-81721196D01*
X88986505Y-81724796D01*
X88962001Y-81726000D01*
X88311999Y-81726000D01*
X88287495Y-81724796D01*
X88263227Y-81721196D01*
X88239428Y-81715235D01*
X88216329Y-81706970D01*
X88194150Y-81696480D01*
X88173107Y-81683868D01*
X88153401Y-81669253D01*
X88135223Y-81652777D01*
X88118747Y-81634599D01*
X88104132Y-81614893D01*
X88091520Y-81593850D01*
X88081030Y-81571671D01*
X88072765Y-81548572D01*
X88066804Y-81524773D01*
X88063204Y-81500505D01*
X88062000Y-81476001D01*
X88062000Y-80575999D01*
X88063204Y-80551495D01*
X88066804Y-80527227D01*
X88072765Y-80503428D01*
X88081030Y-80480329D01*
X88091520Y-80458150D01*
X88104132Y-80437107D01*
X88118747Y-80417401D01*
X88135223Y-80399223D01*
X88153401Y-80382747D01*
X88173107Y-80368132D01*
X88194150Y-80355520D01*
X88216329Y-80345030D01*
X88239428Y-80336765D01*
X88263227Y-80330804D01*
X88287495Y-80327204D01*
X88311999Y-80326000D01*
X88962001Y-80326000D01*
X88986505Y-80327204D01*
G37*
G04 #@! TD.AperFunction*
G04 #@! TA.AperFunction,SMDPad,CuDef*
G36*
X88986505Y-92138204D02*
G01*
X89010773Y-92141804D01*
X89034572Y-92147765D01*
X89057671Y-92156030D01*
X89079850Y-92166520D01*
X89100893Y-92179132D01*
X89120599Y-92193747D01*
X89138777Y-92210223D01*
X89155253Y-92228401D01*
X89169868Y-92248107D01*
X89182480Y-92269150D01*
X89192970Y-92291329D01*
X89201235Y-92314428D01*
X89207196Y-92338227D01*
X89210796Y-92362495D01*
X89212000Y-92386999D01*
X89212000Y-93287001D01*
X89210796Y-93311505D01*
X89207196Y-93335773D01*
X89201235Y-93359572D01*
X89192970Y-93382671D01*
X89182480Y-93404850D01*
X89169868Y-93425893D01*
X89155253Y-93445599D01*
X89138777Y-93463777D01*
X89120599Y-93480253D01*
X89100893Y-93494868D01*
X89079850Y-93507480D01*
X89057671Y-93517970D01*
X89034572Y-93526235D01*
X89010773Y-93532196D01*
X88986505Y-93535796D01*
X88962001Y-93537000D01*
X88311999Y-93537000D01*
X88287495Y-93535796D01*
X88263227Y-93532196D01*
X88239428Y-93526235D01*
X88216329Y-93517970D01*
X88194150Y-93507480D01*
X88173107Y-93494868D01*
X88153401Y-93480253D01*
X88135223Y-93463777D01*
X88118747Y-93445599D01*
X88104132Y-93425893D01*
X88091520Y-93404850D01*
X88081030Y-93382671D01*
X88072765Y-93359572D01*
X88066804Y-93335773D01*
X88063204Y-93311505D01*
X88062000Y-93287001D01*
X88062000Y-92386999D01*
X88063204Y-92362495D01*
X88066804Y-92338227D01*
X88072765Y-92314428D01*
X88081030Y-92291329D01*
X88091520Y-92269150D01*
X88104132Y-92248107D01*
X88118747Y-92228401D01*
X88135223Y-92210223D01*
X88153401Y-92193747D01*
X88173107Y-92179132D01*
X88194150Y-92166520D01*
X88216329Y-92156030D01*
X88239428Y-92147765D01*
X88263227Y-92141804D01*
X88287495Y-92138204D01*
X88311999Y-92137000D01*
X88962001Y-92137000D01*
X88986505Y-92138204D01*
G37*
G04 #@! TD.AperFunction*
G04 #@! TA.AperFunction,SMDPad,CuDef*
G36*
X91036505Y-92138204D02*
G01*
X91060773Y-92141804D01*
X91084572Y-92147765D01*
X91107671Y-92156030D01*
X91129850Y-92166520D01*
X91150893Y-92179132D01*
X91170599Y-92193747D01*
X91188777Y-92210223D01*
X91205253Y-92228401D01*
X91219868Y-92248107D01*
X91232480Y-92269150D01*
X91242970Y-92291329D01*
X91251235Y-92314428D01*
X91257196Y-92338227D01*
X91260796Y-92362495D01*
X91262000Y-92386999D01*
X91262000Y-93287001D01*
X91260796Y-93311505D01*
X91257196Y-93335773D01*
X91251235Y-93359572D01*
X91242970Y-93382671D01*
X91232480Y-93404850D01*
X91219868Y-93425893D01*
X91205253Y-93445599D01*
X91188777Y-93463777D01*
X91170599Y-93480253D01*
X91150893Y-93494868D01*
X91129850Y-93507480D01*
X91107671Y-93517970D01*
X91084572Y-93526235D01*
X91060773Y-93532196D01*
X91036505Y-93535796D01*
X91012001Y-93537000D01*
X90361999Y-93537000D01*
X90337495Y-93535796D01*
X90313227Y-93532196D01*
X90289428Y-93526235D01*
X90266329Y-93517970D01*
X90244150Y-93507480D01*
X90223107Y-93494868D01*
X90203401Y-93480253D01*
X90185223Y-93463777D01*
X90168747Y-93445599D01*
X90154132Y-93425893D01*
X90141520Y-93404850D01*
X90131030Y-93382671D01*
X90122765Y-93359572D01*
X90116804Y-93335773D01*
X90113204Y-93311505D01*
X90112000Y-93287001D01*
X90112000Y-92386999D01*
X90113204Y-92362495D01*
X90116804Y-92338227D01*
X90122765Y-92314428D01*
X90131030Y-92291329D01*
X90141520Y-92269150D01*
X90154132Y-92248107D01*
X90168747Y-92228401D01*
X90185223Y-92210223D01*
X90203401Y-92193747D01*
X90223107Y-92179132D01*
X90244150Y-92166520D01*
X90266329Y-92156030D01*
X90289428Y-92147765D01*
X90313227Y-92141804D01*
X90337495Y-92138204D01*
X90361999Y-92137000D01*
X91012001Y-92137000D01*
X91036505Y-92138204D01*
G37*
G04 #@! TD.AperFunction*
G04 #@! TA.AperFunction,SMDPad,CuDef*
G36*
X88986505Y-88836204D02*
G01*
X89010773Y-88839804D01*
X89034572Y-88845765D01*
X89057671Y-88854030D01*
X89079850Y-88864520D01*
X89100893Y-88877132D01*
X89120599Y-88891747D01*
X89138777Y-88908223D01*
X89155253Y-88926401D01*
X89169868Y-88946107D01*
X89182480Y-88967150D01*
X89192970Y-88989329D01*
X89201235Y-89012428D01*
X89207196Y-89036227D01*
X89210796Y-89060495D01*
X89212000Y-89084999D01*
X89212000Y-89985001D01*
X89210796Y-90009505D01*
X89207196Y-90033773D01*
X89201235Y-90057572D01*
X89192970Y-90080671D01*
X89182480Y-90102850D01*
X89169868Y-90123893D01*
X89155253Y-90143599D01*
X89138777Y-90161777D01*
X89120599Y-90178253D01*
X89100893Y-90192868D01*
X89079850Y-90205480D01*
X89057671Y-90215970D01*
X89034572Y-90224235D01*
X89010773Y-90230196D01*
X88986505Y-90233796D01*
X88962001Y-90235000D01*
X88311999Y-90235000D01*
X88287495Y-90233796D01*
X88263227Y-90230196D01*
X88239428Y-90224235D01*
X88216329Y-90215970D01*
X88194150Y-90205480D01*
X88173107Y-90192868D01*
X88153401Y-90178253D01*
X88135223Y-90161777D01*
X88118747Y-90143599D01*
X88104132Y-90123893D01*
X88091520Y-90102850D01*
X88081030Y-90080671D01*
X88072765Y-90057572D01*
X88066804Y-90033773D01*
X88063204Y-90009505D01*
X88062000Y-89985001D01*
X88062000Y-89084999D01*
X88063204Y-89060495D01*
X88066804Y-89036227D01*
X88072765Y-89012428D01*
X88081030Y-88989329D01*
X88091520Y-88967150D01*
X88104132Y-88946107D01*
X88118747Y-88926401D01*
X88135223Y-88908223D01*
X88153401Y-88891747D01*
X88173107Y-88877132D01*
X88194150Y-88864520D01*
X88216329Y-88854030D01*
X88239428Y-88845765D01*
X88263227Y-88839804D01*
X88287495Y-88836204D01*
X88311999Y-88835000D01*
X88962001Y-88835000D01*
X88986505Y-88836204D01*
G37*
G04 #@! TD.AperFunction*
G04 #@! TA.AperFunction,SMDPad,CuDef*
G36*
X91036505Y-88836204D02*
G01*
X91060773Y-88839804D01*
X91084572Y-88845765D01*
X91107671Y-88854030D01*
X91129850Y-88864520D01*
X91150893Y-88877132D01*
X91170599Y-88891747D01*
X91188777Y-88908223D01*
X91205253Y-88926401D01*
X91219868Y-88946107D01*
X91232480Y-88967150D01*
X91242970Y-88989329D01*
X91251235Y-89012428D01*
X91257196Y-89036227D01*
X91260796Y-89060495D01*
X91262000Y-89084999D01*
X91262000Y-89985001D01*
X91260796Y-90009505D01*
X91257196Y-90033773D01*
X91251235Y-90057572D01*
X91242970Y-90080671D01*
X91232480Y-90102850D01*
X91219868Y-90123893D01*
X91205253Y-90143599D01*
X91188777Y-90161777D01*
X91170599Y-90178253D01*
X91150893Y-90192868D01*
X91129850Y-90205480D01*
X91107671Y-90215970D01*
X91084572Y-90224235D01*
X91060773Y-90230196D01*
X91036505Y-90233796D01*
X91012001Y-90235000D01*
X90361999Y-90235000D01*
X90337495Y-90233796D01*
X90313227Y-90230196D01*
X90289428Y-90224235D01*
X90266329Y-90215970D01*
X90244150Y-90205480D01*
X90223107Y-90192868D01*
X90203401Y-90178253D01*
X90185223Y-90161777D01*
X90168747Y-90143599D01*
X90154132Y-90123893D01*
X90141520Y-90102850D01*
X90131030Y-90080671D01*
X90122765Y-90057572D01*
X90116804Y-90033773D01*
X90113204Y-90009505D01*
X90112000Y-89985001D01*
X90112000Y-89084999D01*
X90113204Y-89060495D01*
X90116804Y-89036227D01*
X90122765Y-89012428D01*
X90131030Y-88989329D01*
X90141520Y-88967150D01*
X90154132Y-88946107D01*
X90168747Y-88926401D01*
X90185223Y-88908223D01*
X90203401Y-88891747D01*
X90223107Y-88877132D01*
X90244150Y-88864520D01*
X90266329Y-88854030D01*
X90289428Y-88845765D01*
X90313227Y-88839804D01*
X90337495Y-88836204D01*
X90361999Y-88835000D01*
X91012001Y-88835000D01*
X91036505Y-88836204D01*
G37*
G04 #@! TD.AperFunction*
D12*
X80794580Y-86383120D03*
X93837002Y-84455000D03*
D13*
X91637000Y-85019000D02*
X92612000Y-85019000D01*
X90687000Y-84069000D02*
X91637000Y-85019000D01*
X90687000Y-81026000D02*
X90687000Y-84069000D01*
X91638000Y-85669000D02*
X92612000Y-85669000D01*
X91637000Y-85668000D02*
X91638000Y-85669000D01*
X91637000Y-85019000D02*
X91637000Y-85668000D01*
X88637000Y-88835000D02*
X88637000Y-89535000D01*
X88637000Y-88669000D02*
X88637000Y-88835000D01*
X91637000Y-85669000D02*
X88637000Y-88669000D01*
X92612000Y-85669000D02*
X91637000Y-85669000D01*
X87687000Y-85019000D02*
X86712000Y-85019000D01*
X88637000Y-84069000D02*
X87687000Y-85019000D01*
X88637000Y-81026000D02*
X88637000Y-84069000D01*
X88062000Y-92837000D02*
X88637000Y-92837000D01*
X87736990Y-92511990D02*
X88062000Y-92837000D01*
X87736990Y-88846820D02*
X87736990Y-92511990D01*
X87762001Y-88821809D02*
X87736990Y-88846820D01*
X87762001Y-85094001D02*
X87762001Y-88821809D01*
X87687000Y-85019000D02*
X87762001Y-85094001D01*
X90687000Y-90235000D02*
X90687000Y-92837000D01*
X90687000Y-89535000D02*
X90687000Y-90235000D01*
X82905600Y-90915740D02*
X82786220Y-90994480D01*
X82397600Y-91177360D02*
X82260440Y-91220540D01*
X82120740Y-91256100D02*
X81981040Y-91278960D01*
X83672680Y-89902280D02*
X83621880Y-90034360D01*
X82514440Y-61531760D02*
X82550000Y-61620660D01*
X82059780Y-61077100D02*
X82143600Y-61117740D01*
X83411060Y-90410280D02*
X83324700Y-90524580D01*
X82572860Y-61709560D02*
X82588100Y-61803540D01*
X83126580Y-90732860D02*
X83019900Y-90829380D01*
X81836260Y-91294200D02*
X81694020Y-91299280D01*
X83751420Y-89625420D02*
X83715860Y-89765120D01*
X81881980Y-61018680D02*
X81970880Y-61041540D01*
X83789520Y-89340940D02*
X83774280Y-89485720D01*
X82296000Y-61229500D02*
X82362040Y-61295540D01*
X82659220Y-91063060D02*
X82529680Y-91126560D01*
X83794600Y-89198700D02*
X83789520Y-89340940D01*
X83621880Y-90034360D02*
X83558380Y-90163900D01*
X82786220Y-90994480D02*
X82659220Y-91063060D01*
X82550000Y-61620660D02*
X82572860Y-61709560D01*
X82362040Y-61295540D02*
X82420460Y-61369200D01*
X82588100Y-61803540D02*
X82593180Y-61897520D01*
X81694020Y-90699840D02*
X81810860Y-90694760D01*
X81927700Y-90682060D02*
X82044540Y-90659200D01*
X82044540Y-90659200D02*
X82158840Y-90626180D01*
X82158840Y-90626180D02*
X82268060Y-90585540D01*
X81970880Y-61041540D02*
X82059780Y-61077100D01*
X82222340Y-61171080D02*
X82296000Y-61229500D01*
X83715860Y-89765120D02*
X83672680Y-89902280D01*
X82478880Y-90478860D02*
X82575400Y-90412820D01*
X81988660Y-61846720D02*
X81975960Y-61795920D01*
X82143600Y-61117740D02*
X82222340Y-61171080D01*
X81744820Y-61602880D02*
X81694020Y-61597800D01*
X82260440Y-91220540D02*
X82120740Y-91256100D01*
X82575400Y-90412820D02*
X82669380Y-90339160D01*
X82755740Y-90260420D02*
X82834480Y-90174060D01*
X83019900Y-90829380D02*
X82905600Y-90915740D01*
X81788000Y-61003440D02*
X81881980Y-61018680D01*
X82420460Y-61369200D02*
X82473800Y-61447940D01*
X83489800Y-90290900D02*
X83411060Y-90410280D01*
X82669380Y-90339160D02*
X82755740Y-90260420D01*
X82529680Y-91126560D02*
X82397600Y-91177360D01*
X82473800Y-61447940D02*
X82514440Y-61531760D01*
X81953100Y-61747660D02*
X81922620Y-61704480D01*
X81843880Y-61638440D02*
X81795620Y-61615580D01*
X82834480Y-90174060D02*
X82908140Y-90080080D01*
X83774280Y-89485720D02*
X83751420Y-89625420D01*
X82268060Y-90585540D02*
X82374740Y-90537280D01*
X83228180Y-90631260D02*
X83126580Y-90732860D01*
X81981040Y-91278960D02*
X81836260Y-91294200D01*
X83558380Y-90163900D02*
X83489800Y-90290900D01*
X82908140Y-90080080D02*
X82974180Y-89983560D01*
X82974180Y-89983560D02*
X83032600Y-89879420D01*
X83032600Y-89879420D02*
X83080860Y-89772740D01*
X81810860Y-90694760D02*
X81927700Y-90682060D01*
X81922620Y-61704480D02*
X81887060Y-61668920D01*
X82374740Y-90537280D02*
X82478880Y-90478860D01*
X83080860Y-89772740D02*
X83121500Y-89663520D01*
X83121500Y-89663520D02*
X83154520Y-89549220D01*
X81694020Y-60998360D02*
X81788000Y-61003440D01*
X81887060Y-61668920D02*
X81843880Y-61638440D01*
X81795620Y-61615580D02*
X81744820Y-61602880D01*
X81993740Y-61897520D02*
X81988660Y-61846720D01*
X83324700Y-90524580D02*
X83228180Y-90631260D01*
X81975960Y-61795920D02*
X81953100Y-61747660D01*
X81988660Y-89249500D02*
X81993740Y-89198700D01*
X82550000Y-89475560D02*
X82514440Y-89564460D01*
X82588100Y-89292680D02*
X82572860Y-89386660D01*
X81975960Y-89300300D02*
X81988660Y-89249500D01*
X82593180Y-89198700D02*
X82588100Y-89292680D01*
X82572860Y-89386660D02*
X82550000Y-89475560D01*
X82059780Y-90019120D02*
X81970880Y-90054680D01*
X81795620Y-89480640D02*
X81843880Y-89457780D01*
X81953100Y-89348560D02*
X81975960Y-89300300D01*
X81843880Y-89457780D02*
X81887060Y-89427300D01*
X83154520Y-89549220D02*
X83177380Y-89432380D01*
X82222340Y-89925140D02*
X82143600Y-89978480D01*
X82296000Y-89866720D02*
X82222340Y-89925140D01*
X83177380Y-89432380D02*
X83190080Y-89315540D01*
X82473800Y-89648280D02*
X82420460Y-89727020D01*
X82420460Y-89727020D02*
X82362040Y-89800680D01*
X83190080Y-89315540D02*
X83195160Y-89198700D01*
X81970880Y-90054680D02*
X81881980Y-90077540D01*
X81744820Y-89493340D02*
X81795620Y-89480640D01*
X81922620Y-89391740D02*
X81953100Y-89348560D01*
X82362040Y-89800680D02*
X82296000Y-89866720D01*
X81881980Y-90077540D02*
X81788000Y-90092780D01*
X82143600Y-89978480D02*
X82059780Y-90019120D01*
X81788000Y-90092780D02*
X81694020Y-90097860D01*
X82514440Y-89564460D02*
X82473800Y-89648280D01*
X81694020Y-89498420D02*
X81744820Y-89493340D01*
X81887060Y-89427300D02*
X81922620Y-89391740D01*
X54352340Y-61602880D02*
X54301540Y-61615580D01*
X82397600Y-59918860D02*
X82529680Y-59969660D01*
X54126280Y-61041540D02*
X54215180Y-61018680D01*
X82529680Y-59969660D02*
X82659220Y-60033160D01*
X82659220Y-60033160D02*
X82786220Y-60101740D01*
X82120740Y-59840120D02*
X82260440Y-59875680D01*
X54037380Y-61077100D02*
X54126280Y-61041540D01*
X54301540Y-61615580D02*
X54253280Y-61638440D01*
X53801160Y-61229500D02*
X53874820Y-61171080D01*
X53874820Y-61171080D02*
X53953560Y-61117740D01*
X54215180Y-61018680D02*
X54309160Y-61003440D01*
X54309160Y-61003440D02*
X54403140Y-60998360D01*
X54253280Y-61638440D02*
X54210100Y-61668920D01*
X54121200Y-61795920D02*
X54108500Y-61846720D01*
X81836260Y-59802020D02*
X81981040Y-59817260D01*
X81694020Y-59796940D02*
X81836260Y-59802020D01*
X82786220Y-60101740D02*
X82905600Y-60180480D01*
X54210100Y-61668920D02*
X54174540Y-61704480D01*
X53953560Y-61117740D02*
X54037380Y-61077100D01*
X54403140Y-61597800D02*
X54352340Y-61602880D01*
X54174540Y-61704480D02*
X54144060Y-61747660D01*
X54144060Y-61747660D02*
X54121200Y-61795920D01*
X54108500Y-61846720D02*
X54103420Y-61897520D01*
X81981040Y-59817260D02*
X82120740Y-59840120D01*
X82260440Y-59875680D02*
X82397600Y-59918860D01*
X82834480Y-60922160D02*
X82755740Y-60835800D01*
X82755740Y-60835800D02*
X82669380Y-60757060D01*
X82158840Y-60470040D02*
X82044540Y-60437020D01*
X82044540Y-60437020D02*
X81927700Y-60414160D01*
X83228180Y-60464960D02*
X83324700Y-60571640D01*
X83621880Y-61061860D02*
X83672680Y-61193940D01*
X81927700Y-60414160D02*
X81810860Y-60401460D01*
X81810860Y-60401460D02*
X81694020Y-60396380D01*
X82575400Y-60683400D02*
X82478880Y-60617360D01*
X83751420Y-61470800D02*
X83774280Y-61610500D01*
X83195160Y-61897520D02*
X83190080Y-61780680D01*
X83121500Y-61432700D02*
X83080860Y-61323480D01*
X83019900Y-60266840D02*
X83126580Y-60363360D01*
X83489800Y-60805320D02*
X83558380Y-60932320D01*
X83177380Y-61663840D02*
X83154520Y-61547000D01*
X83715860Y-61331100D02*
X83751420Y-61470800D01*
X83080860Y-61323480D02*
X83032600Y-61216800D01*
X83154520Y-61547000D02*
X83121500Y-61432700D01*
X82908140Y-61016140D02*
X82834480Y-60922160D01*
X82478880Y-60617360D02*
X82374740Y-60558940D01*
X83789520Y-61755280D02*
X83794600Y-61897520D01*
X83190080Y-61780680D02*
X83177380Y-61663840D01*
X82374740Y-60558940D02*
X82268060Y-60510680D01*
X82268060Y-60510680D02*
X82158840Y-60470040D01*
X83126580Y-60363360D02*
X83228180Y-60464960D01*
X83558380Y-60932320D02*
X83621880Y-61061860D01*
X82669380Y-60757060D02*
X82575400Y-60683400D01*
X83774280Y-61610500D02*
X83789520Y-61755280D01*
X83324700Y-60571640D02*
X83411060Y-60685940D01*
X83672680Y-61193940D02*
X83715860Y-61331100D01*
X82974180Y-61112660D02*
X82908140Y-61016140D01*
X82905600Y-60180480D02*
X83019900Y-60266840D01*
X83411060Y-60685940D02*
X83489800Y-60805320D01*
X83032600Y-61216800D02*
X82974180Y-61112660D01*
X82496660Y-59319420D02*
X82339180Y-59276240D01*
X52868980Y-59675020D02*
X52736900Y-59771540D01*
X81394020Y-85781140D02*
X80794580Y-86383120D01*
X83360260Y-59771540D02*
X83228180Y-59675020D01*
X53757980Y-59276240D02*
X53600500Y-59319420D01*
X83916520Y-60363360D02*
X83820000Y-60231280D01*
X83484720Y-59875680D02*
X83360260Y-59771540D01*
X54240580Y-59202580D02*
X54078020Y-59217820D01*
X84373720Y-61572400D02*
X84350860Y-61409840D01*
X83228180Y-59675020D02*
X83091020Y-59586120D01*
X82181700Y-59240680D02*
X82019140Y-59217820D01*
X52736900Y-59771540D02*
X52612440Y-59875680D01*
X82339180Y-59276240D02*
X82181700Y-59240680D01*
X52612440Y-59875680D02*
X52493060Y-59987440D01*
X83715860Y-60106820D02*
X83604100Y-59987440D01*
X54403140Y-59796940D02*
X81694020Y-59796940D01*
X82948780Y-59507380D02*
X82801460Y-59436260D01*
X54078020Y-59217820D02*
X53915460Y-59240680D01*
X53445560Y-59372760D02*
X53295700Y-59436260D01*
X53915460Y-59240680D02*
X53757980Y-59276240D01*
X84272120Y-61094880D02*
X84218780Y-60939940D01*
X54403140Y-60998360D02*
X81694020Y-60998360D01*
X54403140Y-59197500D02*
X54240580Y-59202580D01*
X84394040Y-61897520D02*
X84388960Y-61734960D01*
X84315300Y-61252360D02*
X84272120Y-61094880D01*
X84155280Y-60790080D02*
X84084160Y-60642760D01*
X84005420Y-60500520D02*
X83916520Y-60363360D01*
X83604100Y-59987440D02*
X83484720Y-59875680D01*
X84388960Y-61734960D02*
X84373720Y-61572400D01*
X83820000Y-60231280D02*
X83715860Y-60106820D01*
X83091020Y-59586120D02*
X82948780Y-59507380D01*
X84350860Y-61409840D02*
X84315300Y-61252360D01*
X84084160Y-60642760D02*
X84005420Y-60500520D01*
X82019140Y-59217820D02*
X81856580Y-59202580D01*
X81694020Y-59197500D02*
X54403140Y-59197500D01*
X81694020Y-60396380D02*
X54403140Y-60396380D01*
X81694020Y-61597800D02*
X54403140Y-61597800D01*
X53600500Y-59319420D02*
X53445560Y-59372760D01*
X82651600Y-59372760D02*
X82496660Y-59319420D01*
X53295700Y-59436260D02*
X53148380Y-59507380D01*
X53148380Y-59507380D02*
X53006140Y-59586120D01*
X82801460Y-59436260D02*
X82651600Y-59372760D01*
X53006140Y-59586120D02*
X52868980Y-59675020D01*
X81856580Y-59202580D02*
X81694020Y-59197500D01*
X84218780Y-60939940D02*
X84155280Y-60790080D01*
X53836720Y-91220540D02*
X53699560Y-91177360D01*
X53191560Y-90915740D02*
X53077260Y-90829380D01*
X52772460Y-90524580D02*
X52686100Y-90410280D01*
X54103420Y-61897520D02*
X54103420Y-89198700D01*
X51825040Y-90001340D02*
X51878380Y-90156280D01*
X52868980Y-91421200D02*
X53006140Y-91510100D01*
X53006140Y-91510100D02*
X53148380Y-91588840D01*
X53915460Y-91855540D02*
X54078020Y-91878400D01*
X52475280Y-90034360D02*
X52424480Y-89902280D01*
X52424480Y-89902280D02*
X52381300Y-89765120D01*
X52493060Y-59987440D02*
X52381300Y-60106820D01*
X51781860Y-61252360D02*
X51746300Y-61409840D01*
X51723440Y-89523820D02*
X51746300Y-89686380D01*
X51941880Y-90306140D02*
X52013000Y-90453460D01*
X52091740Y-90595700D02*
X52180640Y-90732860D01*
X52180640Y-60363360D02*
X52091740Y-60500520D01*
X51746300Y-61409840D02*
X51723440Y-61572400D01*
X51708200Y-61734960D02*
X51703120Y-61897520D01*
X52013000Y-60642760D02*
X51941880Y-60790080D01*
X53757980Y-91819980D02*
X53915460Y-91855540D01*
X54403140Y-91299280D02*
X54260900Y-91294200D01*
X53503980Y-89198700D02*
X53503980Y-61897520D01*
X51878380Y-90156280D02*
X51941880Y-90306140D01*
X52277160Y-90864940D02*
X52381300Y-90989400D01*
X52736900Y-91324680D02*
X52868980Y-91421200D01*
X51723440Y-61572400D02*
X51708200Y-61734960D01*
X52381300Y-90989400D02*
X52493060Y-91108780D01*
X53295700Y-91659960D02*
X53445560Y-91723460D01*
X51941880Y-60790080D02*
X51878380Y-60939940D01*
X51781860Y-89843860D02*
X51825040Y-90001340D01*
X51825040Y-61094880D02*
X51781860Y-61252360D01*
X54260900Y-91294200D02*
X54116120Y-91278960D01*
X51746300Y-89686380D02*
X51781860Y-89843860D01*
X54116120Y-91278960D02*
X53976420Y-91256100D01*
X53567480Y-91126560D02*
X53437940Y-91063060D01*
X51878380Y-60939940D02*
X51825040Y-61094880D01*
X51703120Y-61897520D02*
X51703120Y-89198700D01*
X53437940Y-91063060D02*
X53310940Y-90994480D01*
X53310940Y-90994480D02*
X53191560Y-90915740D01*
X53077260Y-90829380D02*
X52970580Y-90732860D01*
X52686100Y-90410280D02*
X52607360Y-90290900D01*
X52607360Y-90290900D02*
X52538780Y-90163900D01*
X54078020Y-91878400D02*
X54240580Y-91893640D01*
X52381300Y-60106820D02*
X52277160Y-60231280D01*
X53699560Y-91177360D02*
X53567480Y-91126560D01*
X52180640Y-90732860D02*
X52277160Y-90864940D01*
X52970580Y-90732860D02*
X52868980Y-90631260D01*
X52868980Y-90631260D02*
X52772460Y-90524580D01*
X52538780Y-90163900D02*
X52475280Y-90034360D01*
X52091740Y-60500520D02*
X52013000Y-60642760D01*
X52305100Y-89198700D02*
X52305100Y-61897520D01*
X52381300Y-89765120D02*
X52345740Y-89625420D01*
X53600500Y-91776800D02*
X53757980Y-91819980D01*
X51708200Y-89361260D02*
X51723440Y-89523820D01*
X52013000Y-90453460D02*
X52091740Y-90595700D01*
X52277160Y-60231280D02*
X52180640Y-60363360D01*
X52904540Y-61897520D02*
X52904540Y-89198700D01*
X52493060Y-91108780D02*
X52612440Y-91220540D01*
X52612440Y-91220540D02*
X52736900Y-91324680D01*
X53445560Y-91723460D02*
X53600500Y-91776800D01*
X54240580Y-91893640D02*
X54403140Y-91898720D01*
X53976420Y-91256100D02*
X53836720Y-91220540D01*
X51703120Y-89198700D02*
X51708200Y-89361260D01*
X53148380Y-91588840D02*
X53295700Y-91659960D01*
X54037380Y-90019120D02*
X53953560Y-89978480D01*
X53524300Y-89386660D02*
X53509060Y-89292680D01*
X52345740Y-89625420D02*
X52322880Y-89485720D01*
X54174540Y-89391740D02*
X54210100Y-89427300D01*
X53801160Y-89866720D02*
X53735120Y-89800680D01*
X54301540Y-89480640D02*
X54352340Y-89493340D01*
X54121200Y-89300300D02*
X54144060Y-89348560D01*
X54253280Y-89457780D02*
X54301540Y-89480640D01*
X52307640Y-61755280D02*
X52322880Y-61610500D01*
X52907080Y-89315540D02*
X52919780Y-89432380D01*
X54352340Y-89493340D02*
X54403140Y-89498420D01*
X52381300Y-61331100D02*
X52424480Y-61193940D01*
X53189020Y-90080080D02*
X53262680Y-90174060D01*
X53618280Y-90478860D02*
X53722420Y-90537280D01*
X54169460Y-90682060D02*
X54286300Y-90694760D01*
X52322880Y-89485720D02*
X52307640Y-89340940D01*
X52902000Y-89198700D02*
X52907080Y-89315540D01*
X52322880Y-61610500D02*
X52345740Y-61470800D01*
X52475280Y-61061860D02*
X52538780Y-60932320D01*
X52772460Y-60571640D02*
X52868980Y-60464960D01*
X53623360Y-89648280D02*
X53582720Y-89564460D01*
X52975660Y-89663520D02*
X53016300Y-89772740D01*
X52424480Y-61193940D02*
X52475280Y-61061860D01*
X52868980Y-60464960D02*
X52970580Y-60363360D01*
X53077260Y-60266840D02*
X53191560Y-60180480D01*
X52307640Y-89340940D02*
X52302560Y-89198700D01*
X53191560Y-60180480D02*
X53310940Y-60101740D01*
X52686100Y-60685940D02*
X52772460Y-60571640D01*
X53310940Y-60101740D02*
X53437940Y-60033160D01*
X53547160Y-89475560D02*
X53524300Y-89386660D01*
X53427780Y-90339160D02*
X53521760Y-90412820D01*
X53938320Y-90626180D02*
X54052620Y-90659200D01*
X52302560Y-61897520D02*
X52307640Y-61755280D01*
X53437940Y-60033160D02*
X53567480Y-59969660D01*
X52970580Y-60363360D02*
X53077260Y-60266840D01*
X54210100Y-89427300D02*
X54253280Y-89457780D01*
X53953560Y-89978480D02*
X53874820Y-89925140D01*
X53676700Y-89727020D02*
X53623360Y-89648280D01*
X53262680Y-90174060D02*
X53341420Y-90260420D01*
X54309160Y-90092780D02*
X54215180Y-90077540D01*
X54108500Y-89249500D02*
X54121200Y-89300300D01*
X53016300Y-89772740D02*
X53064560Y-89879420D01*
X54403140Y-90097860D02*
X54309160Y-90092780D01*
X53509060Y-89292680D02*
X53503980Y-89198700D01*
X53735120Y-89800680D02*
X53676700Y-89727020D01*
X54052620Y-90659200D02*
X54169460Y-90682060D01*
X54103420Y-89198700D02*
X54108500Y-89249500D01*
X52345740Y-61470800D02*
X52381300Y-61331100D01*
X54144060Y-89348560D02*
X54174540Y-89391740D01*
X52538780Y-60932320D02*
X52607360Y-60805320D01*
X52919780Y-89432380D02*
X52942640Y-89549220D01*
X52607360Y-60805320D02*
X52686100Y-60685940D01*
X53722420Y-90537280D02*
X53829100Y-90585540D01*
X53122980Y-89983560D02*
X53189020Y-90080080D01*
X53829100Y-90585540D02*
X53938320Y-90626180D01*
X52942640Y-89549220D02*
X52975660Y-89663520D01*
X54286300Y-90694760D02*
X54403140Y-90699840D01*
X54126280Y-90054680D02*
X54037380Y-90019120D01*
X53341420Y-90260420D02*
X53427780Y-90339160D01*
X54215180Y-90077540D02*
X54126280Y-90054680D01*
X53874820Y-89925140D02*
X53801160Y-89866720D01*
X53582720Y-89564460D02*
X53547160Y-89475560D01*
X53064560Y-89879420D02*
X53122980Y-89983560D01*
X53521760Y-90412820D02*
X53618280Y-90478860D01*
X52919780Y-61663840D02*
X52907080Y-61780680D01*
X52907080Y-61780680D02*
X52902000Y-61897520D01*
X53509060Y-61803540D02*
X53524300Y-61709560D01*
X52942640Y-61547000D02*
X52919780Y-61663840D01*
X53524300Y-61709560D02*
X53547160Y-61620660D01*
X53503980Y-61897520D02*
X53509060Y-61803540D01*
X53547160Y-61620660D02*
X53582720Y-61531760D01*
X53676700Y-61369200D02*
X53735120Y-61295540D01*
X53735120Y-61295540D02*
X53801160Y-61229500D01*
X53699560Y-59918860D02*
X53836720Y-59875680D01*
X53427780Y-60757060D02*
X53341420Y-60835800D01*
X54260900Y-59802020D02*
X54403140Y-59796940D01*
X54052620Y-60437020D02*
X53938320Y-60470040D01*
X53189020Y-61016140D02*
X53122980Y-61112660D01*
X53567480Y-59969660D02*
X53699560Y-59918860D01*
X53521760Y-60683400D02*
X53427780Y-60757060D01*
X54403140Y-60396380D02*
X54286300Y-60401460D01*
X54286300Y-60401460D02*
X54169460Y-60414160D01*
X53064560Y-61216800D02*
X53016300Y-61323480D01*
X53016300Y-61323480D02*
X52975660Y-61432700D01*
X53262680Y-60922160D02*
X53189020Y-61016140D01*
X53122980Y-61112660D02*
X53064560Y-61216800D01*
X53829100Y-60510680D02*
X53722420Y-60558940D01*
X54116120Y-59817260D02*
X54260900Y-59802020D01*
X53938320Y-60470040D02*
X53829100Y-60510680D01*
X53582720Y-61531760D02*
X53623360Y-61447940D01*
X53623360Y-61447940D02*
X53676700Y-61369200D01*
X53341420Y-60835800D02*
X53262680Y-60922160D01*
X53836720Y-59875680D02*
X53976420Y-59840120D01*
X54169460Y-60414160D02*
X54052620Y-60437020D01*
X53722420Y-60558940D02*
X53618280Y-60617360D01*
X53976420Y-59840120D02*
X54116120Y-59817260D01*
X53618280Y-60617360D02*
X53521760Y-60683400D01*
X52975660Y-61432700D02*
X52942640Y-61547000D01*
X81694020Y-90097860D02*
X54403140Y-90097860D01*
X81694020Y-91296740D02*
X54403140Y-91296740D01*
X54403140Y-91896180D02*
X81694020Y-91896180D01*
X54403140Y-90697300D02*
X81694020Y-90697300D01*
X54403140Y-89498420D02*
X81694020Y-89498420D01*
X82593180Y-89000000D02*
X82593180Y-89198700D01*
X81993740Y-89198700D02*
X81993740Y-89000000D01*
X84394040Y-87383880D02*
X83794600Y-87983320D01*
X83192620Y-89198700D02*
X83192620Y-89000000D01*
X83794600Y-89000000D02*
X83794600Y-89198700D01*
X83192620Y-86982560D02*
X82593180Y-87582000D01*
X81993740Y-87381340D02*
X82593180Y-86781900D01*
X83794600Y-87983320D02*
X83794600Y-89000000D01*
X83192620Y-87782660D02*
X83192620Y-89000000D01*
X82593180Y-87582000D02*
X82593180Y-89000000D01*
X81993740Y-87381340D02*
X81993740Y-89000000D01*
X82593180Y-86781900D02*
X82593180Y-61897520D01*
X83192620Y-61900060D02*
X83195160Y-61897520D01*
X83192620Y-86982560D02*
X83192620Y-61900060D01*
X83789520Y-87175600D02*
X83794600Y-87180680D01*
X83789520Y-61755280D02*
X83789520Y-87175600D01*
X84394040Y-87381340D02*
X84394040Y-61897520D01*
X54703140Y-62197520D02*
X54703140Y-88898700D01*
X81394020Y-85781140D02*
X81394020Y-62197520D01*
X54705000Y-88898700D02*
X81392000Y-88898700D01*
X81393000Y-62197520D02*
X54702860Y-62197520D01*
X81394020Y-87180680D02*
X81993460Y-86581240D01*
X81392000Y-87182700D02*
X81394020Y-87180680D01*
X81392000Y-88898700D02*
X81392000Y-87182700D01*
X81993460Y-61897800D02*
X81993740Y-61897520D01*
X81993460Y-86581240D02*
X81993460Y-61897800D01*
X83192620Y-87782660D02*
X83789520Y-87180680D01*
X84394040Y-87383880D02*
X83794600Y-87983320D01*
X80794580Y-86383120D02*
X80794580Y-86383120D01*
X92698000Y-84455000D02*
X92612000Y-84369000D01*
X93837002Y-84455000D02*
X92698000Y-84455000D01*
X85430000Y-84369000D02*
X86712000Y-84369000D01*
X84963000Y-84836000D02*
X85430000Y-84369000D01*
X84394040Y-88198960D02*
X84963000Y-87630000D01*
X84394040Y-89198700D02*
X84394040Y-88198960D01*
X84218780Y-90156280D02*
X84272120Y-90001340D01*
X84084160Y-90453460D02*
X84155280Y-90306140D01*
X82496660Y-91776800D02*
X82651600Y-91723460D01*
X83916520Y-90732860D02*
X84005420Y-90595700D01*
X83820000Y-90864940D02*
X83916520Y-90732860D01*
X84373720Y-89523820D02*
X84388960Y-89361260D01*
X84155280Y-90306140D02*
X84218780Y-90156280D01*
X83604100Y-91108780D02*
X83715860Y-90989400D01*
X84388960Y-89361260D02*
X84394040Y-89198700D01*
X83715860Y-90989400D02*
X83820000Y-90864940D01*
X83484720Y-91220540D02*
X83604100Y-91108780D01*
X84005420Y-90595700D02*
X84084160Y-90453460D01*
X83228180Y-91421200D02*
X83360260Y-91324680D01*
X84350860Y-89686380D02*
X84373720Y-89523820D01*
X82801460Y-91659960D02*
X82948780Y-91588840D01*
X84315300Y-89843860D02*
X84350860Y-89686380D01*
X82948780Y-91588840D02*
X83091020Y-91510100D01*
X84272120Y-90001340D02*
X84315300Y-89843860D01*
X82651600Y-91723460D02*
X82801460Y-91659960D01*
X83360260Y-91324680D02*
X83484720Y-91220540D01*
X83091020Y-91510100D02*
X83228180Y-91421200D01*
X82339180Y-91819980D02*
X82496660Y-91776800D01*
X82019140Y-91878400D02*
X82181700Y-91855540D01*
X82181700Y-91855540D02*
X82339180Y-91819980D01*
X81856580Y-91893640D02*
X82019140Y-91878400D01*
X84963000Y-87630000D02*
X84963000Y-84836000D01*
X81694020Y-91898720D02*
X81856580Y-91893640D01*
D14*
G36*
X138553566Y-50925141D02*
G01*
X138916757Y-51034794D01*
X139251724Y-51212900D01*
X139545725Y-51452681D01*
X139787549Y-51744997D01*
X139967990Y-52078714D01*
X140080176Y-52441128D01*
X140120267Y-52822573D01*
X140120301Y-52832309D01*
X140120300Y-99771215D01*
X140082859Y-100153066D01*
X139973207Y-100516255D01*
X139795098Y-100851228D01*
X139555319Y-101145225D01*
X139263003Y-101387049D01*
X138929285Y-101567491D01*
X138566872Y-101679676D01*
X138185427Y-101719767D01*
X138175975Y-101719800D01*
X52772785Y-101719800D01*
X52403268Y-101683568D01*
X52051942Y-101577497D01*
X51727917Y-101405209D01*
X51443520Y-101173261D01*
X51209596Y-100890496D01*
X51035048Y-100567678D01*
X50926527Y-100217104D01*
X50887731Y-99847985D01*
X50887700Y-99838980D01*
X50887700Y-61903544D01*
X51365067Y-61903544D01*
X51365420Y-61908810D01*
X51365421Y-89187395D01*
X51365067Y-89192676D01*
X51365421Y-89204004D01*
X51365421Y-89215281D01*
X51365937Y-89220523D01*
X51370476Y-89365767D01*
X51370427Y-89376272D01*
X51370993Y-89382314D01*
X51371183Y-89388380D01*
X51372539Y-89398798D01*
X51386397Y-89546616D01*
X51386722Y-89554426D01*
X51387945Y-89563121D01*
X51388763Y-89571849D01*
X51390250Y-89579511D01*
X51411527Y-89730814D01*
X51413242Y-89744588D01*
X51413828Y-89747182D01*
X51414200Y-89749825D01*
X51417468Y-89763302D01*
X51450501Y-89909593D01*
X51451797Y-89917168D01*
X51454146Y-89925735D01*
X51456106Y-89934415D01*
X51458529Y-89941720D01*
X51497839Y-90085085D01*
X51500335Y-90095587D01*
X51502217Y-90101054D01*
X51503746Y-90106630D01*
X51507607Y-90116710D01*
X51542154Y-90217060D01*
X51549300Y-92075049D01*
X51549544Y-92077478D01*
X51550267Y-92079860D01*
X51551440Y-92082056D01*
X51553020Y-92083980D01*
X51554944Y-92085560D01*
X51557140Y-92086733D01*
X51559522Y-92087456D01*
X51562000Y-92087700D01*
X53466151Y-92087700D01*
X53485153Y-92094242D01*
X53495211Y-92098094D01*
X53500772Y-92099619D01*
X53506251Y-92101505D01*
X53516773Y-92104006D01*
X53660119Y-92143311D01*
X53667425Y-92145734D01*
X53676105Y-92147694D01*
X53684672Y-92150043D01*
X53692249Y-92151339D01*
X53838551Y-92184375D01*
X53852015Y-92187640D01*
X53854649Y-92188010D01*
X53857251Y-92188598D01*
X53871032Y-92190314D01*
X54022334Y-92211591D01*
X54029991Y-92213077D01*
X54038714Y-92213895D01*
X54047412Y-92215118D01*
X54055225Y-92215443D01*
X54203044Y-92229301D01*
X54213460Y-92230657D01*
X54219525Y-92230847D01*
X54225567Y-92231413D01*
X54236073Y-92231364D01*
X54409164Y-92236773D01*
X54452320Y-92233880D01*
X81644840Y-92233880D01*
X81687996Y-92236773D01*
X81861087Y-92231364D01*
X81871592Y-92231413D01*
X81877634Y-92230847D01*
X81883700Y-92230657D01*
X81894118Y-92229301D01*
X82041936Y-92215443D01*
X82049746Y-92215118D01*
X82058441Y-92213895D01*
X82067169Y-92213077D01*
X82074831Y-92211590D01*
X82226134Y-92190313D01*
X82239908Y-92188598D01*
X82242509Y-92188011D01*
X82245145Y-92187640D01*
X82258622Y-92184372D01*
X82404913Y-92151339D01*
X82412488Y-92150043D01*
X82421055Y-92147694D01*
X82429735Y-92145734D01*
X82437040Y-92143311D01*
X82580405Y-92104001D01*
X82590907Y-92101505D01*
X82596374Y-92099623D01*
X82601950Y-92098094D01*
X82612030Y-92094233D01*
X82631007Y-92087700D01*
X84582000Y-92087700D01*
X84584478Y-92087456D01*
X84586860Y-92086733D01*
X84589056Y-92085560D01*
X84590980Y-92083980D01*
X84592560Y-92082056D01*
X84593733Y-92079860D01*
X84594456Y-92077478D01*
X84594700Y-92075000D01*
X84594700Y-90101939D01*
X84594939Y-90101068D01*
X84596825Y-90095589D01*
X84599326Y-90085067D01*
X84638631Y-89941721D01*
X84641054Y-89934415D01*
X84643014Y-89925735D01*
X84645363Y-89917168D01*
X84646659Y-89909591D01*
X84679695Y-89763289D01*
X84682960Y-89749825D01*
X84683332Y-89747182D01*
X84683918Y-89744589D01*
X84685634Y-89730808D01*
X84706911Y-89579506D01*
X84708397Y-89571849D01*
X84709215Y-89563126D01*
X84710438Y-89554428D01*
X84710763Y-89546615D01*
X84724621Y-89398796D01*
X84725977Y-89388380D01*
X84726167Y-89382315D01*
X84726733Y-89376273D01*
X84726684Y-89365767D01*
X84731222Y-89220538D01*
X84731740Y-89215281D01*
X84731740Y-89203972D01*
X84732093Y-89192676D01*
X84731740Y-89187410D01*
X84731740Y-88338839D01*
X85190069Y-87880511D01*
X85202944Y-87869945D01*
X85216470Y-87853464D01*
X85245145Y-87818524D01*
X85270802Y-87770523D01*
X85276503Y-87759857D01*
X85295813Y-87696201D01*
X85300700Y-87646581D01*
X85300700Y-87646578D01*
X85302333Y-87630000D01*
X85300700Y-87613422D01*
X85300700Y-84975879D01*
X85569880Y-84706700D01*
X85792485Y-84706700D01*
X85789540Y-84712209D01*
X85777378Y-84752304D01*
X85773271Y-84794000D01*
X85773271Y-85244000D01*
X85777378Y-85285696D01*
X85789540Y-85325791D01*
X85799273Y-85344000D01*
X85789540Y-85362209D01*
X85777378Y-85402304D01*
X85773271Y-85444000D01*
X85773271Y-85894000D01*
X85777378Y-85935696D01*
X85789540Y-85975791D01*
X85799273Y-85994000D01*
X85789540Y-86012209D01*
X85777378Y-86052304D01*
X85773271Y-86094000D01*
X85773271Y-86544000D01*
X85777378Y-86585696D01*
X85789540Y-86625791D01*
X85809291Y-86662741D01*
X85835871Y-86695129D01*
X85868259Y-86721709D01*
X85905209Y-86741460D01*
X85945304Y-86753622D01*
X85987000Y-86757729D01*
X87424301Y-86757729D01*
X87424302Y-88715439D01*
X87423487Y-88716964D01*
X87404177Y-88780620D01*
X87399573Y-88827366D01*
X87397657Y-88846820D01*
X87399290Y-88863398D01*
X87399291Y-92495402D01*
X87397657Y-92511990D01*
X87403572Y-92572042D01*
X87404178Y-92578191D01*
X87413807Y-92609934D01*
X87423488Y-92641847D01*
X87454845Y-92700513D01*
X87483440Y-92735355D01*
X87497046Y-92751935D01*
X87509926Y-92762505D01*
X87811484Y-93064064D01*
X87822055Y-93076945D01*
X87834934Y-93087514D01*
X87848271Y-93098459D01*
X87848271Y-93287001D01*
X87857181Y-93377470D01*
X87883570Y-93464462D01*
X87926423Y-93544634D01*
X87984094Y-93614906D01*
X88054366Y-93672577D01*
X88134538Y-93715430D01*
X88221530Y-93741819D01*
X88311999Y-93750729D01*
X88962001Y-93750729D01*
X89052470Y-93741819D01*
X89139462Y-93715430D01*
X89219634Y-93672577D01*
X89289906Y-93614906D01*
X89347577Y-93544634D01*
X89390430Y-93464462D01*
X89416819Y-93377470D01*
X89425729Y-93287001D01*
X89425729Y-92386999D01*
X89416819Y-92296530D01*
X89390430Y-92209538D01*
X89347577Y-92129366D01*
X89289906Y-92059094D01*
X89219634Y-92001423D01*
X89139462Y-91958570D01*
X89052470Y-91932181D01*
X88962001Y-91923271D01*
X88311999Y-91923271D01*
X88221530Y-91932181D01*
X88134538Y-91958570D01*
X88074690Y-91990560D01*
X88074690Y-90381440D01*
X88134538Y-90413430D01*
X88221530Y-90439819D01*
X88311999Y-90448729D01*
X88962001Y-90448729D01*
X89052470Y-90439819D01*
X89139462Y-90413430D01*
X89219634Y-90370577D01*
X89289906Y-90312906D01*
X89347577Y-90242634D01*
X89390430Y-90162462D01*
X89416819Y-90075470D01*
X89425729Y-89985001D01*
X89425729Y-89084999D01*
X89898271Y-89084999D01*
X89898271Y-89985001D01*
X89907181Y-90075470D01*
X89933570Y-90162462D01*
X89976423Y-90242634D01*
X90034094Y-90312906D01*
X90104366Y-90370577D01*
X90184538Y-90413430D01*
X90271530Y-90439819D01*
X90349300Y-90447478D01*
X90349301Y-91924522D01*
X90271530Y-91932181D01*
X90184538Y-91958570D01*
X90104366Y-92001423D01*
X90034094Y-92059094D01*
X89976423Y-92129366D01*
X89933570Y-92209538D01*
X89907181Y-92296530D01*
X89898271Y-92386999D01*
X89898271Y-93287001D01*
X89907181Y-93377470D01*
X89933570Y-93464462D01*
X89976423Y-93544634D01*
X90034094Y-93614906D01*
X90104366Y-93672577D01*
X90184538Y-93715430D01*
X90271530Y-93741819D01*
X90361999Y-93750729D01*
X91012001Y-93750729D01*
X91102470Y-93741819D01*
X91189462Y-93715430D01*
X91269634Y-93672577D01*
X91339906Y-93614906D01*
X91397577Y-93544634D01*
X91440430Y-93464462D01*
X91466819Y-93377470D01*
X91475729Y-93287001D01*
X91475729Y-92386999D01*
X91466819Y-92296530D01*
X91440430Y-92209538D01*
X91397577Y-92129366D01*
X91339906Y-92059094D01*
X91269634Y-92001423D01*
X91189462Y-91958570D01*
X91102470Y-91932181D01*
X91024700Y-91924522D01*
X91024700Y-90447478D01*
X91102470Y-90439819D01*
X91189462Y-90413430D01*
X91269634Y-90370577D01*
X91339906Y-90312906D01*
X91397577Y-90242634D01*
X91440430Y-90162462D01*
X91466819Y-90075470D01*
X91475729Y-89985001D01*
X91475729Y-89084999D01*
X91466819Y-88994530D01*
X91440430Y-88907538D01*
X91397577Y-88827366D01*
X91339906Y-88757094D01*
X91269634Y-88699423D01*
X91189462Y-88656570D01*
X91102470Y-88630181D01*
X91012001Y-88621271D01*
X90361999Y-88621271D01*
X90271530Y-88630181D01*
X90184538Y-88656570D01*
X90104366Y-88699423D01*
X90034094Y-88757094D01*
X89976423Y-88827366D01*
X89933570Y-88907538D01*
X89907181Y-88994530D01*
X89898271Y-89084999D01*
X89425729Y-89084999D01*
X89416819Y-88994530D01*
X89390430Y-88907538D01*
X89347577Y-88827366D01*
X89289906Y-88757094D01*
X89219634Y-88699423D01*
X89139462Y-88656570D01*
X89129907Y-88653672D01*
X91673271Y-86110309D01*
X91673271Y-86544000D01*
X91677378Y-86585696D01*
X91689540Y-86625791D01*
X91709291Y-86662741D01*
X91735871Y-86695129D01*
X91768259Y-86721709D01*
X91805209Y-86741460D01*
X91845304Y-86753622D01*
X91887000Y-86757729D01*
X93337000Y-86757729D01*
X93378696Y-86753622D01*
X93418791Y-86741460D01*
X93455741Y-86721709D01*
X93488129Y-86695129D01*
X93514709Y-86662741D01*
X93534460Y-86625791D01*
X93546622Y-86585696D01*
X93550729Y-86544000D01*
X93550729Y-86094000D01*
X93546622Y-86052304D01*
X93534460Y-86012209D01*
X93524727Y-85994000D01*
X93534460Y-85975791D01*
X93546622Y-85935696D01*
X93550729Y-85894000D01*
X93550729Y-85444000D01*
X93546622Y-85402304D01*
X93534460Y-85362209D01*
X93524727Y-85344000D01*
X93534460Y-85325791D01*
X93546622Y-85285696D01*
X93550729Y-85244000D01*
X93550729Y-84880338D01*
X93594147Y-84909349D01*
X93687453Y-84947997D01*
X93786505Y-84967700D01*
X93887499Y-84967700D01*
X93986551Y-84947997D01*
X94079857Y-84909349D01*
X94163829Y-84853240D01*
X94235242Y-84781827D01*
X94291351Y-84697855D01*
X94329999Y-84604549D01*
X94349702Y-84505497D01*
X94349702Y-84404503D01*
X94329999Y-84305451D01*
X94291351Y-84212145D01*
X94235242Y-84128173D01*
X94163829Y-84056760D01*
X94079857Y-84000651D01*
X93986551Y-83962003D01*
X93887499Y-83942300D01*
X93786505Y-83942300D01*
X93687453Y-83962003D01*
X93594147Y-84000651D01*
X93525923Y-84046238D01*
X93514709Y-84025259D01*
X93488129Y-83992871D01*
X93455741Y-83966291D01*
X93418791Y-83946540D01*
X93378696Y-83934378D01*
X93337000Y-83930271D01*
X91887000Y-83930271D01*
X91845304Y-83934378D01*
X91805209Y-83946540D01*
X91768259Y-83966291D01*
X91735871Y-83992871D01*
X91709291Y-84025259D01*
X91689540Y-84062209D01*
X91677378Y-84102304D01*
X91673271Y-84144000D01*
X91673271Y-84577691D01*
X91024700Y-83929121D01*
X91024700Y-81938478D01*
X91102470Y-81930819D01*
X91189462Y-81904430D01*
X91269634Y-81861577D01*
X91339906Y-81803906D01*
X91397577Y-81733634D01*
X91440430Y-81653462D01*
X91466819Y-81566470D01*
X91475729Y-81476001D01*
X91475729Y-80575999D01*
X91466819Y-80485530D01*
X91440430Y-80398538D01*
X91397577Y-80318366D01*
X91339906Y-80248094D01*
X91269634Y-80190423D01*
X91189462Y-80147570D01*
X91102470Y-80121181D01*
X91012001Y-80112271D01*
X90361999Y-80112271D01*
X90271530Y-80121181D01*
X90184538Y-80147570D01*
X90104366Y-80190423D01*
X90034094Y-80248094D01*
X89976423Y-80318366D01*
X89933570Y-80398538D01*
X89907181Y-80485530D01*
X89898271Y-80575999D01*
X89898271Y-81476001D01*
X89907181Y-81566470D01*
X89933570Y-81653462D01*
X89976423Y-81733634D01*
X90034094Y-81803906D01*
X90104366Y-81861577D01*
X90184538Y-81904430D01*
X90271530Y-81930819D01*
X90349300Y-81938478D01*
X90349301Y-84052412D01*
X90347667Y-84069000D01*
X90349426Y-84086855D01*
X90354188Y-84135201D01*
X90373498Y-84198857D01*
X90404855Y-84257523D01*
X90433450Y-84292365D01*
X90447056Y-84308945D01*
X90459936Y-84319515D01*
X91299300Y-85158880D01*
X91299301Y-85529119D01*
X88409937Y-88418484D01*
X88397055Y-88429056D01*
X88386486Y-88441935D01*
X88354855Y-88480477D01*
X88353787Y-88482476D01*
X88323497Y-88539144D01*
X88304187Y-88602800D01*
X88302273Y-88622229D01*
X88221530Y-88630181D01*
X88134538Y-88656570D01*
X88099701Y-88675191D01*
X88099701Y-85110578D01*
X88101334Y-85094000D01*
X88100280Y-85083299D01*
X88864064Y-84319516D01*
X88876945Y-84308945D01*
X88911797Y-84266477D01*
X88919145Y-84257524D01*
X88950502Y-84198858D01*
X88950503Y-84198857D01*
X88969813Y-84135201D01*
X88974700Y-84085581D01*
X88974700Y-84085578D01*
X88976333Y-84069000D01*
X88974700Y-84052422D01*
X88974700Y-81938478D01*
X89052470Y-81930819D01*
X89139462Y-81904430D01*
X89219634Y-81861577D01*
X89289906Y-81803906D01*
X89347577Y-81733634D01*
X89390430Y-81653462D01*
X89416819Y-81566470D01*
X89425729Y-81476001D01*
X89425729Y-80575999D01*
X89416819Y-80485530D01*
X89390430Y-80398538D01*
X89347577Y-80318366D01*
X89289906Y-80248094D01*
X89219634Y-80190423D01*
X89139462Y-80147570D01*
X89052470Y-80121181D01*
X88962001Y-80112271D01*
X88311999Y-80112271D01*
X88221530Y-80121181D01*
X88134538Y-80147570D01*
X88054366Y-80190423D01*
X87984094Y-80248094D01*
X87926423Y-80318366D01*
X87883570Y-80398538D01*
X87857181Y-80485530D01*
X87848271Y-80575999D01*
X87848271Y-81476001D01*
X87857181Y-81566470D01*
X87883570Y-81653462D01*
X87926423Y-81733634D01*
X87984094Y-81803906D01*
X88054366Y-81861577D01*
X88134538Y-81904430D01*
X88221530Y-81930819D01*
X88299300Y-81938478D01*
X88299301Y-83929119D01*
X87650729Y-84577692D01*
X87650729Y-84144000D01*
X87646622Y-84102304D01*
X87634460Y-84062209D01*
X87614709Y-84025259D01*
X87588129Y-83992871D01*
X87555741Y-83966291D01*
X87518791Y-83946540D01*
X87478696Y-83934378D01*
X87437000Y-83930271D01*
X85987000Y-83930271D01*
X85945304Y-83934378D01*
X85905209Y-83946540D01*
X85868259Y-83966291D01*
X85835871Y-83992871D01*
X85809291Y-84025259D01*
X85806062Y-84031300D01*
X85446578Y-84031300D01*
X85430000Y-84029667D01*
X85413422Y-84031300D01*
X85413419Y-84031300D01*
X85363799Y-84036187D01*
X85314958Y-84051003D01*
X85300142Y-84055497D01*
X85243860Y-84085581D01*
X85241477Y-84086855D01*
X85190055Y-84129055D01*
X85179484Y-84141936D01*
X84735936Y-84585485D01*
X84731740Y-84588928D01*
X84731740Y-61908810D01*
X84732093Y-61903544D01*
X84731740Y-61892248D01*
X84731740Y-61880939D01*
X84731222Y-61875682D01*
X84726684Y-61730453D01*
X84726733Y-61719947D01*
X84726167Y-61713905D01*
X84725977Y-61707840D01*
X84724621Y-61697424D01*
X84710763Y-61549605D01*
X84710438Y-61541792D01*
X84709215Y-61533094D01*
X84708397Y-61524371D01*
X84706911Y-61516714D01*
X84685634Y-61365412D01*
X84683918Y-61351631D01*
X84683330Y-61349029D01*
X84682960Y-61346395D01*
X84679695Y-61332931D01*
X84646659Y-61186629D01*
X84645363Y-61179052D01*
X84643014Y-61170485D01*
X84641054Y-61161805D01*
X84638631Y-61154499D01*
X84599326Y-61011153D01*
X84596825Y-61000631D01*
X84594939Y-60995152D01*
X84594700Y-60994281D01*
X84594700Y-59055000D01*
X84594456Y-59052522D01*
X84593733Y-59050140D01*
X84592560Y-59047944D01*
X84590980Y-59046020D01*
X84589056Y-59044440D01*
X84586860Y-59043267D01*
X84584478Y-59042544D01*
X84582000Y-59042300D01*
X82729129Y-59042300D01*
X82612030Y-59001987D01*
X82601950Y-58998126D01*
X82596374Y-58996597D01*
X82590907Y-58994715D01*
X82580405Y-58992219D01*
X82437040Y-58952909D01*
X82429735Y-58950486D01*
X82421055Y-58948526D01*
X82412488Y-58946177D01*
X82404913Y-58944881D01*
X82258622Y-58911848D01*
X82245145Y-58908580D01*
X82242509Y-58908209D01*
X82239908Y-58907622D01*
X82226134Y-58905907D01*
X82074831Y-58884630D01*
X82067169Y-58883143D01*
X82058441Y-58882325D01*
X82049746Y-58881102D01*
X82041936Y-58880777D01*
X81894118Y-58866919D01*
X81883700Y-58865563D01*
X81877634Y-58865373D01*
X81871592Y-58864807D01*
X81861087Y-58864856D01*
X81715858Y-58860318D01*
X81710601Y-58859800D01*
X81699292Y-58859800D01*
X81687996Y-58859447D01*
X81682730Y-58859800D01*
X54414430Y-58859800D01*
X54409164Y-58859447D01*
X54397868Y-58859800D01*
X54386559Y-58859800D01*
X54381302Y-58860318D01*
X54236073Y-58864856D01*
X54225567Y-58864807D01*
X54219525Y-58865373D01*
X54213460Y-58865563D01*
X54203044Y-58866919D01*
X54055225Y-58880777D01*
X54047412Y-58881102D01*
X54038714Y-58882325D01*
X54029991Y-58883143D01*
X54022334Y-58884629D01*
X53871032Y-58905906D01*
X53857251Y-58907622D01*
X53854649Y-58908210D01*
X53852015Y-58908580D01*
X53838551Y-58911845D01*
X53692249Y-58944881D01*
X53684672Y-58946177D01*
X53676105Y-58948526D01*
X53667425Y-58950486D01*
X53660119Y-58952909D01*
X53516773Y-58992214D01*
X53506251Y-58994715D01*
X53500772Y-58996601D01*
X53495211Y-58998126D01*
X53485153Y-59001978D01*
X53368030Y-59042300D01*
X51435000Y-59042300D01*
X51432474Y-59042554D01*
X51430095Y-59043286D01*
X51427904Y-59044468D01*
X51425985Y-59046054D01*
X51424413Y-59047985D01*
X51423248Y-59050185D01*
X51422535Y-59052570D01*
X51422300Y-59055049D01*
X51430833Y-61273727D01*
X51417468Y-61332918D01*
X51414200Y-61346395D01*
X51413829Y-61349031D01*
X51413242Y-61351632D01*
X51411527Y-61365406D01*
X51390250Y-61516709D01*
X51388763Y-61524371D01*
X51387945Y-61533099D01*
X51386722Y-61541794D01*
X51386397Y-61549604D01*
X51372539Y-61697422D01*
X51371183Y-61707840D01*
X51370993Y-61713906D01*
X51370427Y-61719948D01*
X51370476Y-61730453D01*
X51365938Y-61875684D01*
X51365420Y-61880940D01*
X51365420Y-61892248D01*
X51365067Y-61903544D01*
X50887700Y-61903544D01*
X50887700Y-52836285D01*
X50925141Y-52454434D01*
X51034794Y-52091243D01*
X51212900Y-51756276D01*
X51452681Y-51462275D01*
X51744997Y-51220451D01*
X52078714Y-51040010D01*
X52441128Y-50927824D01*
X52822573Y-50887733D01*
X52832025Y-50887700D01*
X138171715Y-50887700D01*
X138553566Y-50925141D01*
G37*
X138553566Y-50925141D02*
X138916757Y-51034794D01*
X139251724Y-51212900D01*
X139545725Y-51452681D01*
X139787549Y-51744997D01*
X139967990Y-52078714D01*
X140080176Y-52441128D01*
X140120267Y-52822573D01*
X140120301Y-52832309D01*
X140120300Y-99771215D01*
X140082859Y-100153066D01*
X139973207Y-100516255D01*
X139795098Y-100851228D01*
X139555319Y-101145225D01*
X139263003Y-101387049D01*
X138929285Y-101567491D01*
X138566872Y-101679676D01*
X138185427Y-101719767D01*
X138175975Y-101719800D01*
X52772785Y-101719800D01*
X52403268Y-101683568D01*
X52051942Y-101577497D01*
X51727917Y-101405209D01*
X51443520Y-101173261D01*
X51209596Y-100890496D01*
X51035048Y-100567678D01*
X50926527Y-100217104D01*
X50887731Y-99847985D01*
X50887700Y-99838980D01*
X50887700Y-61903544D01*
X51365067Y-61903544D01*
X51365420Y-61908810D01*
X51365421Y-89187395D01*
X51365067Y-89192676D01*
X51365421Y-89204004D01*
X51365421Y-89215281D01*
X51365937Y-89220523D01*
X51370476Y-89365767D01*
X51370427Y-89376272D01*
X51370993Y-89382314D01*
X51371183Y-89388380D01*
X51372539Y-89398798D01*
X51386397Y-89546616D01*
X51386722Y-89554426D01*
X51387945Y-89563121D01*
X51388763Y-89571849D01*
X51390250Y-89579511D01*
X51411527Y-89730814D01*
X51413242Y-89744588D01*
X51413828Y-89747182D01*
X51414200Y-89749825D01*
X51417468Y-89763302D01*
X51450501Y-89909593D01*
X51451797Y-89917168D01*
X51454146Y-89925735D01*
X51456106Y-89934415D01*
X51458529Y-89941720D01*
X51497839Y-90085085D01*
X51500335Y-90095587D01*
X51502217Y-90101054D01*
X51503746Y-90106630D01*
X51507607Y-90116710D01*
X51542154Y-90217060D01*
X51549300Y-92075049D01*
X51549544Y-92077478D01*
X51550267Y-92079860D01*
X51551440Y-92082056D01*
X51553020Y-92083980D01*
X51554944Y-92085560D01*
X51557140Y-92086733D01*
X51559522Y-92087456D01*
X51562000Y-92087700D01*
X53466151Y-92087700D01*
X53485153Y-92094242D01*
X53495211Y-92098094D01*
X53500772Y-92099619D01*
X53506251Y-92101505D01*
X53516773Y-92104006D01*
X53660119Y-92143311D01*
X53667425Y-92145734D01*
X53676105Y-92147694D01*
X53684672Y-92150043D01*
X53692249Y-92151339D01*
X53838551Y-92184375D01*
X53852015Y-92187640D01*
X53854649Y-92188010D01*
X53857251Y-92188598D01*
X53871032Y-92190314D01*
X54022334Y-92211591D01*
X54029991Y-92213077D01*
X54038714Y-92213895D01*
X54047412Y-92215118D01*
X54055225Y-92215443D01*
X54203044Y-92229301D01*
X54213460Y-92230657D01*
X54219525Y-92230847D01*
X54225567Y-92231413D01*
X54236073Y-92231364D01*
X54409164Y-92236773D01*
X54452320Y-92233880D01*
X81644840Y-92233880D01*
X81687996Y-92236773D01*
X81861087Y-92231364D01*
X81871592Y-92231413D01*
X81877634Y-92230847D01*
X81883700Y-92230657D01*
X81894118Y-92229301D01*
X82041936Y-92215443D01*
X82049746Y-92215118D01*
X82058441Y-92213895D01*
X82067169Y-92213077D01*
X82074831Y-92211590D01*
X82226134Y-92190313D01*
X82239908Y-92188598D01*
X82242509Y-92188011D01*
X82245145Y-92187640D01*
X82258622Y-92184372D01*
X82404913Y-92151339D01*
X82412488Y-92150043D01*
X82421055Y-92147694D01*
X82429735Y-92145734D01*
X82437040Y-92143311D01*
X82580405Y-92104001D01*
X82590907Y-92101505D01*
X82596374Y-92099623D01*
X82601950Y-92098094D01*
X82612030Y-92094233D01*
X82631007Y-92087700D01*
X84582000Y-92087700D01*
X84584478Y-92087456D01*
X84586860Y-92086733D01*
X84589056Y-92085560D01*
X84590980Y-92083980D01*
X84592560Y-92082056D01*
X84593733Y-92079860D01*
X84594456Y-92077478D01*
X84594700Y-92075000D01*
X84594700Y-90101939D01*
X84594939Y-90101068D01*
X84596825Y-90095589D01*
X84599326Y-90085067D01*
X84638631Y-89941721D01*
X84641054Y-89934415D01*
X84643014Y-89925735D01*
X84645363Y-89917168D01*
X84646659Y-89909591D01*
X84679695Y-89763289D01*
X84682960Y-89749825D01*
X84683332Y-89747182D01*
X84683918Y-89744589D01*
X84685634Y-89730808D01*
X84706911Y-89579506D01*
X84708397Y-89571849D01*
X84709215Y-89563126D01*
X84710438Y-89554428D01*
X84710763Y-89546615D01*
X84724621Y-89398796D01*
X84725977Y-89388380D01*
X84726167Y-89382315D01*
X84726733Y-89376273D01*
X84726684Y-89365767D01*
X84731222Y-89220538D01*
X84731740Y-89215281D01*
X84731740Y-89203972D01*
X84732093Y-89192676D01*
X84731740Y-89187410D01*
X84731740Y-88338839D01*
X85190069Y-87880511D01*
X85202944Y-87869945D01*
X85216470Y-87853464D01*
X85245145Y-87818524D01*
X85270802Y-87770523D01*
X85276503Y-87759857D01*
X85295813Y-87696201D01*
X85300700Y-87646581D01*
X85300700Y-87646578D01*
X85302333Y-87630000D01*
X85300700Y-87613422D01*
X85300700Y-84975879D01*
X85569880Y-84706700D01*
X85792485Y-84706700D01*
X85789540Y-84712209D01*
X85777378Y-84752304D01*
X85773271Y-84794000D01*
X85773271Y-85244000D01*
X85777378Y-85285696D01*
X85789540Y-85325791D01*
X85799273Y-85344000D01*
X85789540Y-85362209D01*
X85777378Y-85402304D01*
X85773271Y-85444000D01*
X85773271Y-85894000D01*
X85777378Y-85935696D01*
X85789540Y-85975791D01*
X85799273Y-85994000D01*
X85789540Y-86012209D01*
X85777378Y-86052304D01*
X85773271Y-86094000D01*
X85773271Y-86544000D01*
X85777378Y-86585696D01*
X85789540Y-86625791D01*
X85809291Y-86662741D01*
X85835871Y-86695129D01*
X85868259Y-86721709D01*
X85905209Y-86741460D01*
X85945304Y-86753622D01*
X85987000Y-86757729D01*
X87424301Y-86757729D01*
X87424302Y-88715439D01*
X87423487Y-88716964D01*
X87404177Y-88780620D01*
X87399573Y-88827366D01*
X87397657Y-88846820D01*
X87399290Y-88863398D01*
X87399291Y-92495402D01*
X87397657Y-92511990D01*
X87403572Y-92572042D01*
X87404178Y-92578191D01*
X87413807Y-92609934D01*
X87423488Y-92641847D01*
X87454845Y-92700513D01*
X87483440Y-92735355D01*
X87497046Y-92751935D01*
X87509926Y-92762505D01*
X87811484Y-93064064D01*
X87822055Y-93076945D01*
X87834934Y-93087514D01*
X87848271Y-93098459D01*
X87848271Y-93287001D01*
X87857181Y-93377470D01*
X87883570Y-93464462D01*
X87926423Y-93544634D01*
X87984094Y-93614906D01*
X88054366Y-93672577D01*
X88134538Y-93715430D01*
X88221530Y-93741819D01*
X88311999Y-93750729D01*
X88962001Y-93750729D01*
X89052470Y-93741819D01*
X89139462Y-93715430D01*
X89219634Y-93672577D01*
X89289906Y-93614906D01*
X89347577Y-93544634D01*
X89390430Y-93464462D01*
X89416819Y-93377470D01*
X89425729Y-93287001D01*
X89425729Y-92386999D01*
X89416819Y-92296530D01*
X89390430Y-92209538D01*
X89347577Y-92129366D01*
X89289906Y-92059094D01*
X89219634Y-92001423D01*
X89139462Y-91958570D01*
X89052470Y-91932181D01*
X88962001Y-91923271D01*
X88311999Y-91923271D01*
X88221530Y-91932181D01*
X88134538Y-91958570D01*
X88074690Y-91990560D01*
X88074690Y-90381440D01*
X88134538Y-90413430D01*
X88221530Y-90439819D01*
X88311999Y-90448729D01*
X88962001Y-90448729D01*
X89052470Y-90439819D01*
X89139462Y-90413430D01*
X89219634Y-90370577D01*
X89289906Y-90312906D01*
X89347577Y-90242634D01*
X89390430Y-90162462D01*
X89416819Y-90075470D01*
X89425729Y-89985001D01*
X89425729Y-89084999D01*
X89898271Y-89084999D01*
X89898271Y-89985001D01*
X89907181Y-90075470D01*
X89933570Y-90162462D01*
X89976423Y-90242634D01*
X90034094Y-90312906D01*
X90104366Y-90370577D01*
X90184538Y-90413430D01*
X90271530Y-90439819D01*
X90349300Y-90447478D01*
X90349301Y-91924522D01*
X90271530Y-91932181D01*
X90184538Y-91958570D01*
X90104366Y-92001423D01*
X90034094Y-92059094D01*
X89976423Y-92129366D01*
X89933570Y-92209538D01*
X89907181Y-92296530D01*
X89898271Y-92386999D01*
X89898271Y-93287001D01*
X89907181Y-93377470D01*
X89933570Y-93464462D01*
X89976423Y-93544634D01*
X90034094Y-93614906D01*
X90104366Y-93672577D01*
X90184538Y-93715430D01*
X90271530Y-93741819D01*
X90361999Y-93750729D01*
X91012001Y-93750729D01*
X91102470Y-93741819D01*
X91189462Y-93715430D01*
X91269634Y-93672577D01*
X91339906Y-93614906D01*
X91397577Y-93544634D01*
X91440430Y-93464462D01*
X91466819Y-93377470D01*
X91475729Y-93287001D01*
X91475729Y-92386999D01*
X91466819Y-92296530D01*
X91440430Y-92209538D01*
X91397577Y-92129366D01*
X91339906Y-92059094D01*
X91269634Y-92001423D01*
X91189462Y-91958570D01*
X91102470Y-91932181D01*
X91024700Y-91924522D01*
X91024700Y-90447478D01*
X91102470Y-90439819D01*
X91189462Y-90413430D01*
X91269634Y-90370577D01*
X91339906Y-90312906D01*
X91397577Y-90242634D01*
X91440430Y-90162462D01*
X91466819Y-90075470D01*
X91475729Y-89985001D01*
X91475729Y-89084999D01*
X91466819Y-88994530D01*
X91440430Y-88907538D01*
X91397577Y-88827366D01*
X91339906Y-88757094D01*
X91269634Y-88699423D01*
X91189462Y-88656570D01*
X91102470Y-88630181D01*
X91012001Y-88621271D01*
X90361999Y-88621271D01*
X90271530Y-88630181D01*
X90184538Y-88656570D01*
X90104366Y-88699423D01*
X90034094Y-88757094D01*
X89976423Y-88827366D01*
X89933570Y-88907538D01*
X89907181Y-88994530D01*
X89898271Y-89084999D01*
X89425729Y-89084999D01*
X89416819Y-88994530D01*
X89390430Y-88907538D01*
X89347577Y-88827366D01*
X89289906Y-88757094D01*
X89219634Y-88699423D01*
X89139462Y-88656570D01*
X89129907Y-88653672D01*
X91673271Y-86110309D01*
X91673271Y-86544000D01*
X91677378Y-86585696D01*
X91689540Y-86625791D01*
X91709291Y-86662741D01*
X91735871Y-86695129D01*
X91768259Y-86721709D01*
X91805209Y-86741460D01*
X91845304Y-86753622D01*
X91887000Y-86757729D01*
X93337000Y-86757729D01*
X93378696Y-86753622D01*
X93418791Y-86741460D01*
X93455741Y-86721709D01*
X93488129Y-86695129D01*
X93514709Y-86662741D01*
X93534460Y-86625791D01*
X93546622Y-86585696D01*
X93550729Y-86544000D01*
X93550729Y-86094000D01*
X93546622Y-86052304D01*
X93534460Y-86012209D01*
X93524727Y-85994000D01*
X93534460Y-85975791D01*
X93546622Y-85935696D01*
X93550729Y-85894000D01*
X93550729Y-85444000D01*
X93546622Y-85402304D01*
X93534460Y-85362209D01*
X93524727Y-85344000D01*
X93534460Y-85325791D01*
X93546622Y-85285696D01*
X93550729Y-85244000D01*
X93550729Y-84880338D01*
X93594147Y-84909349D01*
X93687453Y-84947997D01*
X93786505Y-84967700D01*
X93887499Y-84967700D01*
X93986551Y-84947997D01*
X94079857Y-84909349D01*
X94163829Y-84853240D01*
X94235242Y-84781827D01*
X94291351Y-84697855D01*
X94329999Y-84604549D01*
X94349702Y-84505497D01*
X94349702Y-84404503D01*
X94329999Y-84305451D01*
X94291351Y-84212145D01*
X94235242Y-84128173D01*
X94163829Y-84056760D01*
X94079857Y-84000651D01*
X93986551Y-83962003D01*
X93887499Y-83942300D01*
X93786505Y-83942300D01*
X93687453Y-83962003D01*
X93594147Y-84000651D01*
X93525923Y-84046238D01*
X93514709Y-84025259D01*
X93488129Y-83992871D01*
X93455741Y-83966291D01*
X93418791Y-83946540D01*
X93378696Y-83934378D01*
X93337000Y-83930271D01*
X91887000Y-83930271D01*
X91845304Y-83934378D01*
X91805209Y-83946540D01*
X91768259Y-83966291D01*
X91735871Y-83992871D01*
X91709291Y-84025259D01*
X91689540Y-84062209D01*
X91677378Y-84102304D01*
X91673271Y-84144000D01*
X91673271Y-84577691D01*
X91024700Y-83929121D01*
X91024700Y-81938478D01*
X91102470Y-81930819D01*
X91189462Y-81904430D01*
X91269634Y-81861577D01*
X91339906Y-81803906D01*
X91397577Y-81733634D01*
X91440430Y-81653462D01*
X91466819Y-81566470D01*
X91475729Y-81476001D01*
X91475729Y-80575999D01*
X91466819Y-80485530D01*
X91440430Y-80398538D01*
X91397577Y-80318366D01*
X91339906Y-80248094D01*
X91269634Y-80190423D01*
X91189462Y-80147570D01*
X91102470Y-80121181D01*
X91012001Y-80112271D01*
X90361999Y-80112271D01*
X90271530Y-80121181D01*
X90184538Y-80147570D01*
X90104366Y-80190423D01*
X90034094Y-80248094D01*
X89976423Y-80318366D01*
X89933570Y-80398538D01*
X89907181Y-80485530D01*
X89898271Y-80575999D01*
X89898271Y-81476001D01*
X89907181Y-81566470D01*
X89933570Y-81653462D01*
X89976423Y-81733634D01*
X90034094Y-81803906D01*
X90104366Y-81861577D01*
X90184538Y-81904430D01*
X90271530Y-81930819D01*
X90349300Y-81938478D01*
X90349301Y-84052412D01*
X90347667Y-84069000D01*
X90349426Y-84086855D01*
X90354188Y-84135201D01*
X90373498Y-84198857D01*
X90404855Y-84257523D01*
X90433450Y-84292365D01*
X90447056Y-84308945D01*
X90459936Y-84319515D01*
X91299300Y-85158880D01*
X91299301Y-85529119D01*
X88409937Y-88418484D01*
X88397055Y-88429056D01*
X88386486Y-88441935D01*
X88354855Y-88480477D01*
X88353787Y-88482476D01*
X88323497Y-88539144D01*
X88304187Y-88602800D01*
X88302273Y-88622229D01*
X88221530Y-88630181D01*
X88134538Y-88656570D01*
X88099701Y-88675191D01*
X88099701Y-85110578D01*
X88101334Y-85094000D01*
X88100280Y-85083299D01*
X88864064Y-84319516D01*
X88876945Y-84308945D01*
X88911797Y-84266477D01*
X88919145Y-84257524D01*
X88950502Y-84198858D01*
X88950503Y-84198857D01*
X88969813Y-84135201D01*
X88974700Y-84085581D01*
X88974700Y-84085578D01*
X88976333Y-84069000D01*
X88974700Y-84052422D01*
X88974700Y-81938478D01*
X89052470Y-81930819D01*
X89139462Y-81904430D01*
X89219634Y-81861577D01*
X89289906Y-81803906D01*
X89347577Y-81733634D01*
X89390430Y-81653462D01*
X89416819Y-81566470D01*
X89425729Y-81476001D01*
X89425729Y-80575999D01*
X89416819Y-80485530D01*
X89390430Y-80398538D01*
X89347577Y-80318366D01*
X89289906Y-80248094D01*
X89219634Y-80190423D01*
X89139462Y-80147570D01*
X89052470Y-80121181D01*
X88962001Y-80112271D01*
X88311999Y-80112271D01*
X88221530Y-80121181D01*
X88134538Y-80147570D01*
X88054366Y-80190423D01*
X87984094Y-80248094D01*
X87926423Y-80318366D01*
X87883570Y-80398538D01*
X87857181Y-80485530D01*
X87848271Y-80575999D01*
X87848271Y-81476001D01*
X87857181Y-81566470D01*
X87883570Y-81653462D01*
X87926423Y-81733634D01*
X87984094Y-81803906D01*
X88054366Y-81861577D01*
X88134538Y-81904430D01*
X88221530Y-81930819D01*
X88299300Y-81938478D01*
X88299301Y-83929119D01*
X87650729Y-84577692D01*
X87650729Y-84144000D01*
X87646622Y-84102304D01*
X87634460Y-84062209D01*
X87614709Y-84025259D01*
X87588129Y-83992871D01*
X87555741Y-83966291D01*
X87518791Y-83946540D01*
X87478696Y-83934378D01*
X87437000Y-83930271D01*
X85987000Y-83930271D01*
X85945304Y-83934378D01*
X85905209Y-83946540D01*
X85868259Y-83966291D01*
X85835871Y-83992871D01*
X85809291Y-84025259D01*
X85806062Y-84031300D01*
X85446578Y-84031300D01*
X85430000Y-84029667D01*
X85413422Y-84031300D01*
X85413419Y-84031300D01*
X85363799Y-84036187D01*
X85314958Y-84051003D01*
X85300142Y-84055497D01*
X85243860Y-84085581D01*
X85241477Y-84086855D01*
X85190055Y-84129055D01*
X85179484Y-84141936D01*
X84735936Y-84585485D01*
X84731740Y-84588928D01*
X84731740Y-61908810D01*
X84732093Y-61903544D01*
X84731740Y-61892248D01*
X84731740Y-61880939D01*
X84731222Y-61875682D01*
X84726684Y-61730453D01*
X84726733Y-61719947D01*
X84726167Y-61713905D01*
X84725977Y-61707840D01*
X84724621Y-61697424D01*
X84710763Y-61549605D01*
X84710438Y-61541792D01*
X84709215Y-61533094D01*
X84708397Y-61524371D01*
X84706911Y-61516714D01*
X84685634Y-61365412D01*
X84683918Y-61351631D01*
X84683330Y-61349029D01*
X84682960Y-61346395D01*
X84679695Y-61332931D01*
X84646659Y-61186629D01*
X84645363Y-61179052D01*
X84643014Y-61170485D01*
X84641054Y-61161805D01*
X84638631Y-61154499D01*
X84599326Y-61011153D01*
X84596825Y-61000631D01*
X84594939Y-60995152D01*
X84594700Y-60994281D01*
X84594700Y-59055000D01*
X84594456Y-59052522D01*
X84593733Y-59050140D01*
X84592560Y-59047944D01*
X84590980Y-59046020D01*
X84589056Y-59044440D01*
X84586860Y-59043267D01*
X84584478Y-59042544D01*
X84582000Y-59042300D01*
X82729129Y-59042300D01*
X82612030Y-59001987D01*
X82601950Y-58998126D01*
X82596374Y-58996597D01*
X82590907Y-58994715D01*
X82580405Y-58992219D01*
X82437040Y-58952909D01*
X82429735Y-58950486D01*
X82421055Y-58948526D01*
X82412488Y-58946177D01*
X82404913Y-58944881D01*
X82258622Y-58911848D01*
X82245145Y-58908580D01*
X82242509Y-58908209D01*
X82239908Y-58907622D01*
X82226134Y-58905907D01*
X82074831Y-58884630D01*
X82067169Y-58883143D01*
X82058441Y-58882325D01*
X82049746Y-58881102D01*
X82041936Y-58880777D01*
X81894118Y-58866919D01*
X81883700Y-58865563D01*
X81877634Y-58865373D01*
X81871592Y-58864807D01*
X81861087Y-58864856D01*
X81715858Y-58860318D01*
X81710601Y-58859800D01*
X81699292Y-58859800D01*
X81687996Y-58859447D01*
X81682730Y-58859800D01*
X54414430Y-58859800D01*
X54409164Y-58859447D01*
X54397868Y-58859800D01*
X54386559Y-58859800D01*
X54381302Y-58860318D01*
X54236073Y-58864856D01*
X54225567Y-58864807D01*
X54219525Y-58865373D01*
X54213460Y-58865563D01*
X54203044Y-58866919D01*
X54055225Y-58880777D01*
X54047412Y-58881102D01*
X54038714Y-58882325D01*
X54029991Y-58883143D01*
X54022334Y-58884629D01*
X53871032Y-58905906D01*
X53857251Y-58907622D01*
X53854649Y-58908210D01*
X53852015Y-58908580D01*
X53838551Y-58911845D01*
X53692249Y-58944881D01*
X53684672Y-58946177D01*
X53676105Y-58948526D01*
X53667425Y-58950486D01*
X53660119Y-58952909D01*
X53516773Y-58992214D01*
X53506251Y-58994715D01*
X53500772Y-58996601D01*
X53495211Y-58998126D01*
X53485153Y-59001978D01*
X53368030Y-59042300D01*
X51435000Y-59042300D01*
X51432474Y-59042554D01*
X51430095Y-59043286D01*
X51427904Y-59044468D01*
X51425985Y-59046054D01*
X51424413Y-59047985D01*
X51423248Y-59050185D01*
X51422535Y-59052570D01*
X51422300Y-59055049D01*
X51430833Y-61273727D01*
X51417468Y-61332918D01*
X51414200Y-61346395D01*
X51413829Y-61349031D01*
X51413242Y-61351632D01*
X51411527Y-61365406D01*
X51390250Y-61516709D01*
X51388763Y-61524371D01*
X51387945Y-61533099D01*
X51386722Y-61541794D01*
X51386397Y-61549604D01*
X51372539Y-61697422D01*
X51371183Y-61707840D01*
X51370993Y-61713906D01*
X51370427Y-61719948D01*
X51370476Y-61730453D01*
X51365938Y-61875684D01*
X51365420Y-61880940D01*
X51365420Y-61892248D01*
X51365067Y-61903544D01*
X50887700Y-61903544D01*
X50887700Y-52836285D01*
X50925141Y-52454434D01*
X51034794Y-52091243D01*
X51212900Y-51756276D01*
X51452681Y-51462275D01*
X51744997Y-51220451D01*
X52078714Y-51040010D01*
X52441128Y-50927824D01*
X52822573Y-50887733D01*
X52832025Y-50887700D01*
X138171715Y-50887700D01*
X138553566Y-50925141D01*
M02*
