G04 #@! TF.GenerationSoftware,KiCad,Pcbnew,(5.1.5-0-10_14)*
G04 #@! TF.CreationDate,2020-04-20T15:33:36-04:00*
G04 #@! TF.ProjectId,business card,62757369-6e65-4737-9320-636172642e6b,rev?*
G04 #@! TF.SameCoordinates,Original*
G04 #@! TF.FileFunction,Copper,L2,Bot*
G04 #@! TF.FilePolarity,Positive*
%FSLAX46Y46*%
G04 Gerber Fmt 4.6, Leading zero omitted, Abs format (unit mm)*
G04 Created by KiCad (PCBNEW (5.1.5-0-10_14)) date 2020-04-20 15:33:36*
%MOMM*%
%LPD*%
G04 APERTURE LIST*
%ADD10C,0.600000*%
%ADD11C,0.250000*%
%ADD12C,0.200000*%
G04 APERTURE END LIST*
D10*
X80794580Y-86383120D03*
X93837002Y-84455000D03*
D11*
X91908882Y-86383120D02*
X93837002Y-84455000D01*
X80794580Y-86383120D02*
X91908882Y-86383120D01*
D12*
G36*
X138536531Y-51011190D02*
G01*
X138883326Y-51115893D01*
X139203187Y-51285966D01*
X139483916Y-51514924D01*
X139714828Y-51794050D01*
X139819668Y-51987947D01*
X139932641Y-52259745D01*
X139949260Y-52313431D01*
X140012827Y-52790739D01*
X140033001Y-65121201D01*
X140033000Y-99766939D01*
X139996810Y-100136031D01*
X139892107Y-100482828D01*
X139722034Y-100802687D01*
X139493079Y-101083414D01*
X139213950Y-101314329D01*
X138895294Y-101486625D01*
X138549230Y-101593750D01*
X138180712Y-101632482D01*
X138175667Y-101632500D01*
X52777062Y-101632500D01*
X52420303Y-101597519D01*
X52085372Y-101496398D01*
X51776457Y-101332145D01*
X51505331Y-101111021D01*
X51282317Y-100841442D01*
X51115913Y-100533687D01*
X51012453Y-100199461D01*
X50975016Y-99843271D01*
X50975000Y-99838675D01*
X50975000Y-59055385D01*
X51335001Y-59055385D01*
X51462001Y-92075385D01*
X51463921Y-92094509D01*
X51469612Y-92113268D01*
X51478853Y-92130557D01*
X51491289Y-92145711D01*
X51506443Y-92158147D01*
X51523732Y-92167388D01*
X51542491Y-92173079D01*
X51562000Y-92175000D01*
X84582000Y-92175000D01*
X84601509Y-92173079D01*
X84620268Y-92167388D01*
X84637557Y-92158147D01*
X84652711Y-92145711D01*
X84665147Y-92130557D01*
X84674388Y-92113268D01*
X84680079Y-92094509D01*
X84682000Y-92075000D01*
X84682000Y-86808120D01*
X91888015Y-86808120D01*
X91908882Y-86810175D01*
X91929749Y-86808120D01*
X91929756Y-86808120D01*
X91992196Y-86801970D01*
X92072309Y-86777668D01*
X92146142Y-86738204D01*
X92210856Y-86685094D01*
X92224165Y-86668877D01*
X93838043Y-85055000D01*
X93896097Y-85055000D01*
X94012016Y-85031942D01*
X94121209Y-84986713D01*
X94219480Y-84921050D01*
X94303052Y-84837478D01*
X94368715Y-84739207D01*
X94413944Y-84630014D01*
X94437002Y-84514095D01*
X94437002Y-84395905D01*
X94413944Y-84279986D01*
X94368715Y-84170793D01*
X94303052Y-84072522D01*
X94219480Y-83988950D01*
X94121209Y-83923287D01*
X94012016Y-83878058D01*
X93896097Y-83855000D01*
X93777907Y-83855000D01*
X93661988Y-83878058D01*
X93552795Y-83923287D01*
X93454524Y-83988950D01*
X93370952Y-84072522D01*
X93305289Y-84170793D01*
X93260060Y-84279986D01*
X93237002Y-84395905D01*
X93237002Y-84453959D01*
X91732842Y-85958120D01*
X84682000Y-85958120D01*
X84682000Y-59055000D01*
X84680079Y-59035491D01*
X84674388Y-59016732D01*
X84665147Y-58999443D01*
X84652711Y-58984289D01*
X84637557Y-58971853D01*
X84620268Y-58962612D01*
X84601509Y-58956921D01*
X84582000Y-58955000D01*
X51435000Y-58955000D01*
X51415114Y-58956997D01*
X51396377Y-58962760D01*
X51379124Y-58972067D01*
X51364018Y-58984562D01*
X51351640Y-58999763D01*
X51342466Y-59017087D01*
X51336847Y-59035868D01*
X51335001Y-59055385D01*
X50975000Y-59055385D01*
X50975000Y-52840561D01*
X51011190Y-52471469D01*
X51115893Y-52124674D01*
X51285966Y-51804813D01*
X51514924Y-51524084D01*
X51794050Y-51293172D01*
X52112707Y-51120875D01*
X52458771Y-51013750D01*
X52827288Y-50975018D01*
X52832333Y-50975000D01*
X138167439Y-50975000D01*
X138536531Y-51011190D01*
G37*
X138536531Y-51011190D02*
X138883326Y-51115893D01*
X139203187Y-51285966D01*
X139483916Y-51514924D01*
X139714828Y-51794050D01*
X139819668Y-51987947D01*
X139932641Y-52259745D01*
X139949260Y-52313431D01*
X140012827Y-52790739D01*
X140033001Y-65121201D01*
X140033000Y-99766939D01*
X139996810Y-100136031D01*
X139892107Y-100482828D01*
X139722034Y-100802687D01*
X139493079Y-101083414D01*
X139213950Y-101314329D01*
X138895294Y-101486625D01*
X138549230Y-101593750D01*
X138180712Y-101632482D01*
X138175667Y-101632500D01*
X52777062Y-101632500D01*
X52420303Y-101597519D01*
X52085372Y-101496398D01*
X51776457Y-101332145D01*
X51505331Y-101111021D01*
X51282317Y-100841442D01*
X51115913Y-100533687D01*
X51012453Y-100199461D01*
X50975016Y-99843271D01*
X50975000Y-99838675D01*
X50975000Y-59055385D01*
X51335001Y-59055385D01*
X51462001Y-92075385D01*
X51463921Y-92094509D01*
X51469612Y-92113268D01*
X51478853Y-92130557D01*
X51491289Y-92145711D01*
X51506443Y-92158147D01*
X51523732Y-92167388D01*
X51542491Y-92173079D01*
X51562000Y-92175000D01*
X84582000Y-92175000D01*
X84601509Y-92173079D01*
X84620268Y-92167388D01*
X84637557Y-92158147D01*
X84652711Y-92145711D01*
X84665147Y-92130557D01*
X84674388Y-92113268D01*
X84680079Y-92094509D01*
X84682000Y-92075000D01*
X84682000Y-86808120D01*
X91888015Y-86808120D01*
X91908882Y-86810175D01*
X91929749Y-86808120D01*
X91929756Y-86808120D01*
X91992196Y-86801970D01*
X92072309Y-86777668D01*
X92146142Y-86738204D01*
X92210856Y-86685094D01*
X92224165Y-86668877D01*
X93838043Y-85055000D01*
X93896097Y-85055000D01*
X94012016Y-85031942D01*
X94121209Y-84986713D01*
X94219480Y-84921050D01*
X94303052Y-84837478D01*
X94368715Y-84739207D01*
X94413944Y-84630014D01*
X94437002Y-84514095D01*
X94437002Y-84395905D01*
X94413944Y-84279986D01*
X94368715Y-84170793D01*
X94303052Y-84072522D01*
X94219480Y-83988950D01*
X94121209Y-83923287D01*
X94012016Y-83878058D01*
X93896097Y-83855000D01*
X93777907Y-83855000D01*
X93661988Y-83878058D01*
X93552795Y-83923287D01*
X93454524Y-83988950D01*
X93370952Y-84072522D01*
X93305289Y-84170793D01*
X93260060Y-84279986D01*
X93237002Y-84395905D01*
X93237002Y-84453959D01*
X91732842Y-85958120D01*
X84682000Y-85958120D01*
X84682000Y-59055000D01*
X84680079Y-59035491D01*
X84674388Y-59016732D01*
X84665147Y-58999443D01*
X84652711Y-58984289D01*
X84637557Y-58971853D01*
X84620268Y-58962612D01*
X84601509Y-58956921D01*
X84582000Y-58955000D01*
X51435000Y-58955000D01*
X51415114Y-58956997D01*
X51396377Y-58962760D01*
X51379124Y-58972067D01*
X51364018Y-58984562D01*
X51351640Y-58999763D01*
X51342466Y-59017087D01*
X51336847Y-59035868D01*
X51335001Y-59055385D01*
X50975000Y-59055385D01*
X50975000Y-52840561D01*
X51011190Y-52471469D01*
X51115893Y-52124674D01*
X51285966Y-51804813D01*
X51514924Y-51524084D01*
X51794050Y-51293172D01*
X52112707Y-51120875D01*
X52458771Y-51013750D01*
X52827288Y-50975018D01*
X52832333Y-50975000D01*
X138167439Y-50975000D01*
X138536531Y-51011190D01*
M02*
