G04 #@! TF.GenerationSoftware,KiCad,Pcbnew,(5.1.5-0-10_14)*
G04 #@! TF.CreationDate,2020-04-20T15:44:47-04:00*
G04 #@! TF.ProjectId,business card,62757369-6e65-4737-9320-636172642e6b,rev?*
G04 #@! TF.SameCoordinates,Original*
G04 #@! TF.FileFunction,Soldermask,Top*
G04 #@! TF.FilePolarity,Negative*
%FSLAX46Y46*%
G04 Gerber Fmt 4.6, Leading zero omitted, Abs format (unit mm)*
G04 Created by KiCad (PCBNEW (5.1.5-0-10_14)) date 2020-04-20 15:44:47*
%MOMM*%
%LPD*%
G04 APERTURE LIST*
%ADD10C,0.250000*%
%ADD11R,1.850000X0.850000*%
%ADD12C,0.100000*%
G04 APERTURE END LIST*
D10*
X81394020Y-85781140D02*
X80794580Y-86383120D01*
X81394020Y-87180680D02*
X81993460Y-86581240D01*
X81392000Y-88898700D02*
X81392000Y-87182700D01*
X54705000Y-88898700D02*
X81392000Y-88898700D01*
X54703140Y-62197520D02*
X54703140Y-88898700D01*
X81394020Y-85781140D02*
X81394020Y-62197520D01*
X81393000Y-62197520D02*
X54702860Y-62197520D01*
X84391500Y-61864500D02*
X84391500Y-87381340D01*
X83794600Y-87178140D02*
X83794600Y-61864500D01*
X83197700Y-61877200D02*
X83197700Y-86974940D01*
X81993460Y-86581240D02*
X81993460Y-61897800D01*
X82588100Y-86781900D02*
X82588100Y-61877200D01*
X84978240Y-88382100D02*
X85293200Y-88382100D01*
X84394040Y-88966300D02*
G75*
G02X84978240Y-88382100I584200J0D01*
G01*
X82588100Y-86781900D02*
X81991200Y-87378800D01*
X83197700Y-86974940D02*
X82600800Y-87571840D01*
X83794600Y-87178140D02*
X83195160Y-87777580D01*
X84391500Y-87381340D02*
X83794600Y-87980780D01*
X81711800Y-60391300D02*
G75*
G02X83197700Y-61877200I0J-1485900D01*
G01*
X81711800Y-61000900D02*
G75*
G02X82588100Y-61877200I0J-876300D01*
G01*
X81711800Y-61597800D02*
G75*
G02X81991200Y-61877200I0J-279400D01*
G01*
X81724500Y-59794400D02*
G75*
G02X83794600Y-61864500I0J-2070100D01*
G01*
X81724500Y-59197500D02*
G75*
G02X84391500Y-61864500I0J-2667000D01*
G01*
X54381400Y-59197500D02*
X81699100Y-59197500D01*
X54381400Y-59794400D02*
X81724500Y-59794400D01*
X54381400Y-60391300D02*
X81711800Y-60391300D01*
X54381400Y-61000900D02*
X81711800Y-61000900D01*
X54381400Y-61597800D02*
X81711800Y-61597800D01*
X51701700Y-89207600D02*
X51701700Y-61928000D01*
X52298600Y-61877200D02*
X52298600Y-89140000D01*
X52908200Y-89182200D02*
X52908200Y-61928000D01*
X53505100Y-61877200D02*
X53505100Y-89190000D01*
X54102000Y-89182200D02*
X54102000Y-61928000D01*
X54102000Y-61877200D02*
G75*
G02X54381400Y-61597800I279400J0D01*
G01*
X53505100Y-61877200D02*
G75*
G02X54381400Y-61000900I876300J0D01*
G01*
X52905660Y-61884820D02*
G75*
G02X54391560Y-60398920I1485900J0D01*
G01*
X52298600Y-61877200D02*
G75*
G02X54381400Y-59794400I2082800J0D01*
G01*
X51701700Y-61877200D02*
G75*
G02X54381400Y-59197500I2679700J0D01*
G01*
X54394100Y-91900000D02*
G75*
G02X51701700Y-89207600I0J2692400D01*
G01*
X54367401Y-91291530D02*
G75*
G02X52310000Y-89210000I26699J2083930D01*
G01*
X54368700Y-90693500D02*
G75*
G02X52908200Y-89182200I25400J1485900D01*
G01*
X54368700Y-90096600D02*
G75*
G02X53505100Y-89182200I25400J889000D01*
G01*
X54368700Y-89499700D02*
G75*
G02X54102000Y-89182200I25400J292100D01*
G01*
X83794520Y-89238080D02*
X83794520Y-87985600D01*
X81724500Y-91894041D02*
X54356000Y-91894041D01*
X81727001Y-91295480D02*
X54356000Y-91295480D01*
X81716826Y-90696094D02*
X54356000Y-90696094D01*
X81719420Y-90094060D02*
X54356000Y-90094060D01*
X81706720Y-89492080D02*
X54356000Y-89492080D01*
X81993318Y-89245228D02*
X81993318Y-87376000D01*
X82595560Y-89233000D02*
X82595560Y-87579200D01*
X83190080Y-89222840D02*
X83190080Y-87782400D01*
X81983318Y-89245228D02*
G75*
G02X81706720Y-89492080I-263898J17308D01*
G01*
X82585560Y-89233000D02*
G75*
G02X81719420Y-90094060I-863600J2540D01*
G01*
X83190080Y-89222840D02*
G75*
G02X81716826Y-90696094I-1473254J0D01*
G01*
X83789520Y-89238080D02*
G75*
G02X81732081Y-91295519I-2057439J0D01*
G01*
X84390704Y-89161880D02*
G75*
G02X81724500Y-91894041I-2666204J-65161D01*
G01*
X84391500Y-89000000D02*
X84391500Y-89169500D01*
D11*
X86712000Y-84369000D03*
X86712000Y-85019000D03*
X86712000Y-85669000D03*
X86712000Y-86319000D03*
X92612000Y-86319000D03*
X92612000Y-85669000D03*
X92612000Y-85019000D03*
X92612000Y-84369000D03*
D12*
G36*
X91158071Y-80127623D02*
G01*
X91190781Y-80132475D01*
X91222857Y-80140509D01*
X91253991Y-80151649D01*
X91283884Y-80165787D01*
X91312247Y-80182787D01*
X91338807Y-80202485D01*
X91363308Y-80224692D01*
X91385515Y-80249193D01*
X91405213Y-80275753D01*
X91422213Y-80304116D01*
X91436351Y-80334009D01*
X91447491Y-80365143D01*
X91455525Y-80397219D01*
X91460377Y-80429929D01*
X91462000Y-80462956D01*
X91462000Y-81589044D01*
X91460377Y-81622071D01*
X91455525Y-81654781D01*
X91447491Y-81686857D01*
X91436351Y-81717991D01*
X91422213Y-81747884D01*
X91405213Y-81776247D01*
X91385515Y-81802807D01*
X91363308Y-81827308D01*
X91338807Y-81849515D01*
X91312247Y-81869213D01*
X91283884Y-81886213D01*
X91253991Y-81900351D01*
X91222857Y-81911491D01*
X91190781Y-81919525D01*
X91158071Y-81924377D01*
X91125044Y-81926000D01*
X90248956Y-81926000D01*
X90215929Y-81924377D01*
X90183219Y-81919525D01*
X90151143Y-81911491D01*
X90120009Y-81900351D01*
X90090116Y-81886213D01*
X90061753Y-81869213D01*
X90035193Y-81849515D01*
X90010692Y-81827308D01*
X89988485Y-81802807D01*
X89968787Y-81776247D01*
X89951787Y-81747884D01*
X89937649Y-81717991D01*
X89926509Y-81686857D01*
X89918475Y-81654781D01*
X89913623Y-81622071D01*
X89912000Y-81589044D01*
X89912000Y-80462956D01*
X89913623Y-80429929D01*
X89918475Y-80397219D01*
X89926509Y-80365143D01*
X89937649Y-80334009D01*
X89951787Y-80304116D01*
X89968787Y-80275753D01*
X89988485Y-80249193D01*
X90010692Y-80224692D01*
X90035193Y-80202485D01*
X90061753Y-80182787D01*
X90090116Y-80165787D01*
X90120009Y-80151649D01*
X90151143Y-80140509D01*
X90183219Y-80132475D01*
X90215929Y-80127623D01*
X90248956Y-80126000D01*
X91125044Y-80126000D01*
X91158071Y-80127623D01*
G37*
G36*
X89108071Y-80127623D02*
G01*
X89140781Y-80132475D01*
X89172857Y-80140509D01*
X89203991Y-80151649D01*
X89233884Y-80165787D01*
X89262247Y-80182787D01*
X89288807Y-80202485D01*
X89313308Y-80224692D01*
X89335515Y-80249193D01*
X89355213Y-80275753D01*
X89372213Y-80304116D01*
X89386351Y-80334009D01*
X89397491Y-80365143D01*
X89405525Y-80397219D01*
X89410377Y-80429929D01*
X89412000Y-80462956D01*
X89412000Y-81589044D01*
X89410377Y-81622071D01*
X89405525Y-81654781D01*
X89397491Y-81686857D01*
X89386351Y-81717991D01*
X89372213Y-81747884D01*
X89355213Y-81776247D01*
X89335515Y-81802807D01*
X89313308Y-81827308D01*
X89288807Y-81849515D01*
X89262247Y-81869213D01*
X89233884Y-81886213D01*
X89203991Y-81900351D01*
X89172857Y-81911491D01*
X89140781Y-81919525D01*
X89108071Y-81924377D01*
X89075044Y-81926000D01*
X88198956Y-81926000D01*
X88165929Y-81924377D01*
X88133219Y-81919525D01*
X88101143Y-81911491D01*
X88070009Y-81900351D01*
X88040116Y-81886213D01*
X88011753Y-81869213D01*
X87985193Y-81849515D01*
X87960692Y-81827308D01*
X87938485Y-81802807D01*
X87918787Y-81776247D01*
X87901787Y-81747884D01*
X87887649Y-81717991D01*
X87876509Y-81686857D01*
X87868475Y-81654781D01*
X87863623Y-81622071D01*
X87862000Y-81589044D01*
X87862000Y-80462956D01*
X87863623Y-80429929D01*
X87868475Y-80397219D01*
X87876509Y-80365143D01*
X87887649Y-80334009D01*
X87901787Y-80304116D01*
X87918787Y-80275753D01*
X87938485Y-80249193D01*
X87960692Y-80224692D01*
X87985193Y-80202485D01*
X88011753Y-80182787D01*
X88040116Y-80165787D01*
X88070009Y-80151649D01*
X88101143Y-80140509D01*
X88133219Y-80132475D01*
X88165929Y-80127623D01*
X88198956Y-80126000D01*
X89075044Y-80126000D01*
X89108071Y-80127623D01*
G37*
G36*
X89108071Y-91938623D02*
G01*
X89140781Y-91943475D01*
X89172857Y-91951509D01*
X89203991Y-91962649D01*
X89233884Y-91976787D01*
X89262247Y-91993787D01*
X89288807Y-92013485D01*
X89313308Y-92035692D01*
X89335515Y-92060193D01*
X89355213Y-92086753D01*
X89372213Y-92115116D01*
X89386351Y-92145009D01*
X89397491Y-92176143D01*
X89405525Y-92208219D01*
X89410377Y-92240929D01*
X89412000Y-92273956D01*
X89412000Y-93400044D01*
X89410377Y-93433071D01*
X89405525Y-93465781D01*
X89397491Y-93497857D01*
X89386351Y-93528991D01*
X89372213Y-93558884D01*
X89355213Y-93587247D01*
X89335515Y-93613807D01*
X89313308Y-93638308D01*
X89288807Y-93660515D01*
X89262247Y-93680213D01*
X89233884Y-93697213D01*
X89203991Y-93711351D01*
X89172857Y-93722491D01*
X89140781Y-93730525D01*
X89108071Y-93735377D01*
X89075044Y-93737000D01*
X88198956Y-93737000D01*
X88165929Y-93735377D01*
X88133219Y-93730525D01*
X88101143Y-93722491D01*
X88070009Y-93711351D01*
X88040116Y-93697213D01*
X88011753Y-93680213D01*
X87985193Y-93660515D01*
X87960692Y-93638308D01*
X87938485Y-93613807D01*
X87918787Y-93587247D01*
X87901787Y-93558884D01*
X87887649Y-93528991D01*
X87876509Y-93497857D01*
X87868475Y-93465781D01*
X87863623Y-93433071D01*
X87862000Y-93400044D01*
X87862000Y-92273956D01*
X87863623Y-92240929D01*
X87868475Y-92208219D01*
X87876509Y-92176143D01*
X87887649Y-92145009D01*
X87901787Y-92115116D01*
X87918787Y-92086753D01*
X87938485Y-92060193D01*
X87960692Y-92035692D01*
X87985193Y-92013485D01*
X88011753Y-91993787D01*
X88040116Y-91976787D01*
X88070009Y-91962649D01*
X88101143Y-91951509D01*
X88133219Y-91943475D01*
X88165929Y-91938623D01*
X88198956Y-91937000D01*
X89075044Y-91937000D01*
X89108071Y-91938623D01*
G37*
G36*
X91158071Y-91938623D02*
G01*
X91190781Y-91943475D01*
X91222857Y-91951509D01*
X91253991Y-91962649D01*
X91283884Y-91976787D01*
X91312247Y-91993787D01*
X91338807Y-92013485D01*
X91363308Y-92035692D01*
X91385515Y-92060193D01*
X91405213Y-92086753D01*
X91422213Y-92115116D01*
X91436351Y-92145009D01*
X91447491Y-92176143D01*
X91455525Y-92208219D01*
X91460377Y-92240929D01*
X91462000Y-92273956D01*
X91462000Y-93400044D01*
X91460377Y-93433071D01*
X91455525Y-93465781D01*
X91447491Y-93497857D01*
X91436351Y-93528991D01*
X91422213Y-93558884D01*
X91405213Y-93587247D01*
X91385515Y-93613807D01*
X91363308Y-93638308D01*
X91338807Y-93660515D01*
X91312247Y-93680213D01*
X91283884Y-93697213D01*
X91253991Y-93711351D01*
X91222857Y-93722491D01*
X91190781Y-93730525D01*
X91158071Y-93735377D01*
X91125044Y-93737000D01*
X90248956Y-93737000D01*
X90215929Y-93735377D01*
X90183219Y-93730525D01*
X90151143Y-93722491D01*
X90120009Y-93711351D01*
X90090116Y-93697213D01*
X90061753Y-93680213D01*
X90035193Y-93660515D01*
X90010692Y-93638308D01*
X89988485Y-93613807D01*
X89968787Y-93587247D01*
X89951787Y-93558884D01*
X89937649Y-93528991D01*
X89926509Y-93497857D01*
X89918475Y-93465781D01*
X89913623Y-93433071D01*
X89912000Y-93400044D01*
X89912000Y-92273956D01*
X89913623Y-92240929D01*
X89918475Y-92208219D01*
X89926509Y-92176143D01*
X89937649Y-92145009D01*
X89951787Y-92115116D01*
X89968787Y-92086753D01*
X89988485Y-92060193D01*
X90010692Y-92035692D01*
X90035193Y-92013485D01*
X90061753Y-91993787D01*
X90090116Y-91976787D01*
X90120009Y-91962649D01*
X90151143Y-91951509D01*
X90183219Y-91943475D01*
X90215929Y-91938623D01*
X90248956Y-91937000D01*
X91125044Y-91937000D01*
X91158071Y-91938623D01*
G37*
G36*
X89108071Y-88636623D02*
G01*
X89140781Y-88641475D01*
X89172857Y-88649509D01*
X89203991Y-88660649D01*
X89233884Y-88674787D01*
X89262247Y-88691787D01*
X89288807Y-88711485D01*
X89313308Y-88733692D01*
X89335515Y-88758193D01*
X89355213Y-88784753D01*
X89372213Y-88813116D01*
X89386351Y-88843009D01*
X89397491Y-88874143D01*
X89405525Y-88906219D01*
X89410377Y-88938929D01*
X89412000Y-88971956D01*
X89412000Y-90098044D01*
X89410377Y-90131071D01*
X89405525Y-90163781D01*
X89397491Y-90195857D01*
X89386351Y-90226991D01*
X89372213Y-90256884D01*
X89355213Y-90285247D01*
X89335515Y-90311807D01*
X89313308Y-90336308D01*
X89288807Y-90358515D01*
X89262247Y-90378213D01*
X89233884Y-90395213D01*
X89203991Y-90409351D01*
X89172857Y-90420491D01*
X89140781Y-90428525D01*
X89108071Y-90433377D01*
X89075044Y-90435000D01*
X88198956Y-90435000D01*
X88165929Y-90433377D01*
X88133219Y-90428525D01*
X88101143Y-90420491D01*
X88070009Y-90409351D01*
X88040116Y-90395213D01*
X88011753Y-90378213D01*
X87985193Y-90358515D01*
X87960692Y-90336308D01*
X87938485Y-90311807D01*
X87918787Y-90285247D01*
X87901787Y-90256884D01*
X87887649Y-90226991D01*
X87876509Y-90195857D01*
X87868475Y-90163781D01*
X87863623Y-90131071D01*
X87862000Y-90098044D01*
X87862000Y-88971956D01*
X87863623Y-88938929D01*
X87868475Y-88906219D01*
X87876509Y-88874143D01*
X87887649Y-88843009D01*
X87901787Y-88813116D01*
X87918787Y-88784753D01*
X87938485Y-88758193D01*
X87960692Y-88733692D01*
X87985193Y-88711485D01*
X88011753Y-88691787D01*
X88040116Y-88674787D01*
X88070009Y-88660649D01*
X88101143Y-88649509D01*
X88133219Y-88641475D01*
X88165929Y-88636623D01*
X88198956Y-88635000D01*
X89075044Y-88635000D01*
X89108071Y-88636623D01*
G37*
G36*
X91158071Y-88636623D02*
G01*
X91190781Y-88641475D01*
X91222857Y-88649509D01*
X91253991Y-88660649D01*
X91283884Y-88674787D01*
X91312247Y-88691787D01*
X91338807Y-88711485D01*
X91363308Y-88733692D01*
X91385515Y-88758193D01*
X91405213Y-88784753D01*
X91422213Y-88813116D01*
X91436351Y-88843009D01*
X91447491Y-88874143D01*
X91455525Y-88906219D01*
X91460377Y-88938929D01*
X91462000Y-88971956D01*
X91462000Y-90098044D01*
X91460377Y-90131071D01*
X91455525Y-90163781D01*
X91447491Y-90195857D01*
X91436351Y-90226991D01*
X91422213Y-90256884D01*
X91405213Y-90285247D01*
X91385515Y-90311807D01*
X91363308Y-90336308D01*
X91338807Y-90358515D01*
X91312247Y-90378213D01*
X91283884Y-90395213D01*
X91253991Y-90409351D01*
X91222857Y-90420491D01*
X91190781Y-90428525D01*
X91158071Y-90433377D01*
X91125044Y-90435000D01*
X90248956Y-90435000D01*
X90215929Y-90433377D01*
X90183219Y-90428525D01*
X90151143Y-90420491D01*
X90120009Y-90409351D01*
X90090116Y-90395213D01*
X90061753Y-90378213D01*
X90035193Y-90358515D01*
X90010692Y-90336308D01*
X89988485Y-90311807D01*
X89968787Y-90285247D01*
X89951787Y-90256884D01*
X89937649Y-90226991D01*
X89926509Y-90195857D01*
X89918475Y-90163781D01*
X89913623Y-90131071D01*
X89912000Y-90098044D01*
X89912000Y-88971956D01*
X89913623Y-88938929D01*
X89918475Y-88906219D01*
X89926509Y-88874143D01*
X89937649Y-88843009D01*
X89951787Y-88813116D01*
X89968787Y-88784753D01*
X89988485Y-88758193D01*
X90010692Y-88733692D01*
X90035193Y-88711485D01*
X90061753Y-88691787D01*
X90090116Y-88674787D01*
X90120009Y-88660649D01*
X90151143Y-88649509D01*
X90183219Y-88641475D01*
X90215929Y-88636623D01*
X90248956Y-88635000D01*
X91125044Y-88635000D01*
X91158071Y-88636623D01*
G37*
M02*
